<mxfile host="65bd71144e">
    <diagram id="tKJuRIwTwCE2HmaIJ2Yb" name="Page-1">
        <mxGraphModel dx="1488" dy="812" grid="1" gridSize="10" guides="1" tooltips="1" connect="1" arrows="1" fold="1" page="1" pageScale="1" pageWidth="1920" pageHeight="1200" math="0" shadow="0">
            <root>
                <mxCell id="0"/>
                <mxCell id="57" value="Frame" style="locked=1;" parent="0"/>
                <mxCell id="58" value="Comportement souhaité" style="shape=umlFrame;whiteSpace=wrap;html=1;width=250;height=30;boundedLbl=1;verticalAlign=middle;align=left;spacingLeft=5;fontFamily=Times New Roman;fontSize=16;strokeColor=#000000;fillColor=#f5f5f5;fontColor=#333333;" parent="57" vertex="1">
                    <mxGeometry x="410" y="110" width="260" height="290" as="geometry"/>
                </mxCell>
                <mxCell id="59" value="Comportement indésirable" style="shape=umlFrame;whiteSpace=wrap;html=1;width=250;height=30;boundedLbl=1;verticalAlign=middle;align=left;spacingLeft=5;fontFamily=Times New Roman;fontSize=16;strokeColor=#000000;fillColor=#f5f5f5;fontColor=#333333;" parent="57" vertex="1">
                    <mxGeometry x="90" y="110" width="260" height="290" as="geometry"/>
                </mxCell>
                <mxCell id="60" value="marqueur" style="" parent="0"/>
                <mxCell id="61" value="" style="verticalLabelPosition=bottom;verticalAlign=top;html=1;shape=mxgraph.basic.x;fontSize=24;fillColor=#f8cecc;strokeColor=#b85450;" parent="60" vertex="1">
                    <mxGeometry x="430" y="220" width="40" height="40" as="geometry"/>
                </mxCell>
                <mxCell id="62" value="" style="verticalLabelPosition=bottom;verticalAlign=top;html=1;shape=mxgraph.basic.x;fontSize=24;fillColor=#f8cecc;strokeColor=#b85450;" parent="60" vertex="1">
                    <mxGeometry x="110" y="220" width="40" height="40" as="geometry"/>
                </mxCell>
                <mxCell id="89" value="" style="verticalLabelPosition=bottom;verticalAlign=top;html=1;shape=mxgraph.basic.x;fontSize=24;fillColor=#f8cecc;strokeColor=#b85450;" parent="60" vertex="1">
                    <mxGeometry x="160" y="760" width="40" height="40" as="geometry"/>
                </mxCell>
                <mxCell id="90" value="" style="verticalLabelPosition=bottom;verticalAlign=top;html=1;shape=mxgraph.basic.x;fontSize=24;fillColor=#f8cecc;strokeColor=#b85450;" parent="60" vertex="1">
                    <mxGeometry x="320" y="760" width="40" height="40" as="geometry"/>
                </mxCell>
                <mxCell id="91" value="" style="verticalLabelPosition=bottom;verticalAlign=top;html=1;shape=mxgraph.basic.x;fontSize=24;fillColor=#f8cecc;strokeColor=#b85450;" parent="60" vertex="1">
                    <mxGeometry x="160" y="680" width="40" height="40" as="geometry"/>
                </mxCell>
                <mxCell id="92" value="" style="verticalLabelPosition=bottom;verticalAlign=top;html=1;shape=mxgraph.basic.x;fontSize=24;fillColor=#f8cecc;strokeColor=#b85450;" parent="60" vertex="1">
                    <mxGeometry x="240" y="760" width="40" height="40" as="geometry"/>
                </mxCell>
                <mxCell id="93" value="" style="verticalLabelPosition=bottom;verticalAlign=top;html=1;shape=mxgraph.basic.x;fontSize=24;fillColor=#f8cecc;strokeColor=#b85450;" parent="60" vertex="1">
                    <mxGeometry x="400" y="680" width="40" height="40" as="geometry"/>
                </mxCell>
                <mxCell id="209" value="" style="verticalLabelPosition=bottom;verticalAlign=top;html=1;shape=mxgraph.basic.x;fontSize=24;fillColor=#f8cecc;strokeColor=#b85450;" parent="60" vertex="1">
                    <mxGeometry x="720" y="880" width="40" height="40" as="geometry"/>
                </mxCell>
                <mxCell id="210" value="" style="verticalLabelPosition=bottom;verticalAlign=top;html=1;shape=mxgraph.basic.x;fontSize=24;fillColor=#f8cecc;strokeColor=#b85450;" parent="60" vertex="1">
                    <mxGeometry x="880" y="880" width="40" height="40" as="geometry"/>
                </mxCell>
                <mxCell id="211" value="" style="verticalLabelPosition=bottom;verticalAlign=top;html=1;shape=mxgraph.basic.x;fontSize=24;fillColor=#f8cecc;strokeColor=#b85450;" parent="60" vertex="1">
                    <mxGeometry x="800" y="880" width="40" height="40" as="geometry"/>
                </mxCell>
                <mxCell id="212" value="" style="verticalLabelPosition=bottom;verticalAlign=top;html=1;shape=mxgraph.basic.x;fontSize=24;fillColor=#f8cecc;strokeColor=#b85450;" parent="60" vertex="1">
                    <mxGeometry x="720" y="800" width="40" height="40" as="geometry"/>
                </mxCell>
                <mxCell id="213" value="" style="verticalLabelPosition=bottom;verticalAlign=top;html=1;shape=mxgraph.basic.x;fontSize=24;fillColor=#f8cecc;strokeColor=#b85450;" parent="60" vertex="1">
                    <mxGeometry x="960" y="800" width="40" height="40" as="geometry"/>
                </mxCell>
                <mxCell id="259" value="" style="verticalLabelPosition=bottom;verticalAlign=top;html=1;shape=mxgraph.basic.x;fontSize=24;fillColor=#f8cecc;strokeColor=#b85450;" parent="60" vertex="1">
                    <mxGeometry x="1200" y="800" width="40" height="40" as="geometry"/>
                </mxCell>
                <mxCell id="260" value="" style="verticalLabelPosition=bottom;verticalAlign=top;html=1;shape=mxgraph.basic.x;fontSize=24;fillColor=#f8cecc;strokeColor=#b85450;" parent="60" vertex="1">
                    <mxGeometry x="1440" y="800" width="40" height="40" as="geometry"/>
                </mxCell>
                <mxCell id="262" value="" style="verticalLabelPosition=bottom;verticalAlign=top;html=1;shape=mxgraph.basic.x;fontSize=24;fillColor=#f8cecc;strokeColor=#b85450;" parent="60" vertex="1">
                    <mxGeometry x="1360" y="880" width="40" height="40" as="geometry"/>
                </mxCell>
                <mxCell id="263" value="" style="verticalLabelPosition=bottom;verticalAlign=top;html=1;shape=mxgraph.basic.x;fontSize=24;fillColor=#f8cecc;strokeColor=#b85450;" parent="60" vertex="1">
                    <mxGeometry x="1280" y="880" width="40" height="40" as="geometry"/>
                </mxCell>
                <mxCell id="264" value="" style="ellipse;shape=doubleEllipse;whiteSpace=wrap;html=1;aspect=fixed;fontFamily=Times New Roman;fontSize=14;fillColor=none;fontColor=#ffffff;strokeColor=#B20000;" parent="60" vertex="1">
                    <mxGeometry x="1230" y="950" width="40" height="40" as="geometry"/>
                </mxCell>
                <mxCell id="268" value="" style="verticalLabelPosition=bottom;verticalAlign=top;html=1;shape=mxgraph.basic.x;fontSize=24;fillColor=#f8cecc;strokeColor=#b85450;" parent="60" vertex="1">
                    <mxGeometry x="1200" y="880" width="40" height="40" as="geometry"/>
                </mxCell>
                <mxCell id="1" value="Objects" style="" parent="0"/>
                <mxCell id="5" style="edgeStyle=orthogonalEdgeStyle;html=1;fontFamily=Times New Roman;fontSize=16;exitX=0;exitY=0.5;exitDx=0;exitDy=0;rounded=0;" parent="1" source="36" target="35" edge="1">
                    <mxGeometry relative="1" as="geometry">
                        <Array as="points">
                            <mxPoint x="160" y="180"/>
                            <mxPoint x="160" y="360"/>
                        </Array>
                    </mxGeometry>
                </mxCell>
                <mxCell id="6" style="edgeStyle=orthogonalEdgeStyle;html=1;fontFamily=Times New Roman;fontSize=16;rounded=0;" parent="1" source="43" target="42" edge="1">
                    <mxGeometry relative="1" as="geometry">
                        <mxPoint x="250" y="180" as="sourcePoint"/>
                        <mxPoint x="210" y="420" as="targetPoint"/>
                        <Array as="points">
                            <mxPoint x="220" y="180"/>
                            <mxPoint x="220" y="360"/>
                        </Array>
                    </mxGeometry>
                </mxCell>
                <mxCell id="7" style="edgeStyle=orthogonalEdgeStyle;html=1;fontFamily=Times New Roman;fontSize=16;rounded=0;" parent="1" source="50" target="49" edge="1">
                    <mxGeometry relative="1" as="geometry">
                        <mxPoint x="330" y="180" as="sourcePoint"/>
                        <mxPoint x="290" y="420" as="targetPoint"/>
                        <Array as="points">
                            <mxPoint x="280" y="180"/>
                            <mxPoint x="280" y="360"/>
                        </Array>
                    </mxGeometry>
                </mxCell>
                <mxCell id="9" value="1" style="ellipse;whiteSpace=wrap;html=1;aspect=fixed;fontSize=24;fontStyle=1;fillColor=none;fontFamily=Times New Roman;" parent="1" vertex="1">
                    <mxGeometry x="430" y="220" width="40" height="40" as="geometry"/>
                </mxCell>
                <mxCell id="10" value="2" style="ellipse;whiteSpace=wrap;html=1;aspect=fixed;fontSize=24;fontStyle=1;fillColor=none;fontFamily=Times New Roman;" parent="1" vertex="1">
                    <mxGeometry x="430" y="280" width="40" height="40" as="geometry"/>
                </mxCell>
                <mxCell id="11" value="3" style="ellipse;whiteSpace=wrap;html=1;aspect=fixed;fontSize=24;fontStyle=1;fillColor=none;fontFamily=Times New Roman;" parent="1" vertex="1">
                    <mxGeometry x="430" y="340" width="40" height="40" as="geometry"/>
                </mxCell>
                <mxCell id="12" value="4" style="ellipse;whiteSpace=wrap;html=1;aspect=fixed;fontSize=24;fontStyle=1;fillColor=none;fontFamily=Times New Roman;" parent="1" vertex="1">
                    <mxGeometry x="490" y="160" width="40" height="40" as="geometry"/>
                </mxCell>
                <mxCell id="67" value="" style="edgeStyle=none;html=1;" parent="1" source="13" target="9" edge="1">
                    <mxGeometry relative="1" as="geometry"/>
                </mxCell>
                <mxCell id="13" value="5" style="ellipse;whiteSpace=wrap;html=1;aspect=fixed;fontSize=24;fontStyle=1;fillColor=none;fontFamily=Times New Roman;" parent="1" vertex="1">
                    <mxGeometry x="490" y="220" width="40" height="40" as="geometry"/>
                </mxCell>
                <mxCell id="15" value="6" style="ellipse;whiteSpace=wrap;html=1;aspect=fixed;fontSize=24;fontStyle=1;fillColor=none;fontFamily=Times New Roman;" parent="1" vertex="1">
                    <mxGeometry x="490" y="280" width="40" height="40" as="geometry"/>
                </mxCell>
                <mxCell id="16" value="7" style="ellipse;whiteSpace=wrap;html=1;aspect=fixed;fontSize=24;fontStyle=1;fillColor=none;fontFamily=Times New Roman;" parent="1" vertex="1">
                    <mxGeometry x="490" y="340" width="40" height="40" as="geometry"/>
                </mxCell>
                <mxCell id="17" value="8" style="ellipse;whiteSpace=wrap;html=1;aspect=fixed;fontSize=24;fontStyle=1;fillColor=none;fontFamily=Times New Roman;" parent="1" vertex="1">
                    <mxGeometry x="550" y="160" width="40" height="40" as="geometry"/>
                </mxCell>
                <mxCell id="66" value="" style="edgeStyle=none;html=1;" parent="1" source="18" target="13" edge="1">
                    <mxGeometry relative="1" as="geometry"/>
                </mxCell>
                <mxCell id="18" value="9" style="ellipse;whiteSpace=wrap;html=1;aspect=fixed;fontSize=24;fontStyle=1;fillColor=none;fontFamily=Times New Roman;" parent="1" vertex="1">
                    <mxGeometry x="550" y="220" width="40" height="40" as="geometry"/>
                </mxCell>
                <mxCell id="20" value="10" style="ellipse;whiteSpace=wrap;html=1;aspect=fixed;fontSize=24;fontStyle=1;fillColor=none;fontFamily=Times New Roman;" parent="1" vertex="1">
                    <mxGeometry x="550" y="280" width="40" height="40" as="geometry"/>
                </mxCell>
                <mxCell id="21" value="11" style="ellipse;whiteSpace=wrap;html=1;aspect=fixed;fontSize=24;fontStyle=1;fillColor=none;fontFamily=Times New Roman;" parent="1" vertex="1">
                    <mxGeometry x="550" y="340" width="40" height="40" as="geometry"/>
                </mxCell>
                <mxCell id="22" value="12" style="ellipse;whiteSpace=wrap;html=1;aspect=fixed;fontSize=24;fontStyle=1;fillColor=none;fontFamily=Times New Roman;" parent="1" vertex="1">
                    <mxGeometry x="610" y="160" width="40" height="40" as="geometry"/>
                </mxCell>
                <mxCell id="65" value="" style="edgeStyle=none;html=1;" parent="1" source="23" target="18" edge="1">
                    <mxGeometry relative="1" as="geometry"/>
                </mxCell>
                <mxCell id="23" value="13" style="ellipse;whiteSpace=wrap;html=1;aspect=fixed;fontSize=24;fontStyle=1;fillColor=none;fontFamily=Times New Roman;" parent="1" vertex="1">
                    <mxGeometry x="610" y="220" width="40" height="40" as="geometry"/>
                </mxCell>
                <mxCell id="64" value="" style="edgeStyle=none;html=1;" parent="1" source="25" target="23" edge="1">
                    <mxGeometry relative="1" as="geometry"/>
                </mxCell>
                <mxCell id="25" value="14" style="ellipse;whiteSpace=wrap;html=1;aspect=fixed;fontSize=24;fontStyle=1;fillColor=none;fontFamily=Times New Roman;" parent="1" vertex="1">
                    <mxGeometry x="610" y="280" width="40" height="40" as="geometry"/>
                </mxCell>
                <mxCell id="63" value="" style="edgeStyle=none;html=1;" parent="1" source="27" target="25" edge="1">
                    <mxGeometry relative="1" as="geometry"/>
                </mxCell>
                <mxCell id="27" value="15" style="ellipse;whiteSpace=wrap;html=1;aspect=fixed;fontSize=24;fontStyle=1;fillColor=none;fontFamily=Times New Roman;" parent="1" vertex="1">
                    <mxGeometry x="610" y="340" width="40" height="40" as="geometry"/>
                </mxCell>
                <mxCell id="29" value="0" style="ellipse;whiteSpace=wrap;html=1;aspect=fixed;fontSize=24;fontStyle=1;fillColor=none;fontFamily=Times New Roman;" parent="1" vertex="1">
                    <mxGeometry x="430" y="160" width="40" height="40" as="geometry"/>
                </mxCell>
                <mxCell id="30" value="0" style="ellipse;whiteSpace=wrap;html=1;aspect=fixed;fontSize=24;fontStyle=1;fillColor=none;fontFamily=Times New Roman;" parent="1" vertex="1">
                    <mxGeometry x="110" y="160" width="40" height="40" as="geometry"/>
                </mxCell>
                <mxCell id="31" value="1" style="ellipse;whiteSpace=wrap;html=1;aspect=fixed;fontSize=24;fontStyle=1;fillColor=none;fontFamily=Times New Roman;" parent="1" vertex="1">
                    <mxGeometry x="110" y="220" width="40" height="40" as="geometry"/>
                </mxCell>
                <mxCell id="32" value="" style="edgeStyle=none;html=1;fontFamily=Times New Roman;fontSize=16;" parent="1" source="33" target="31" edge="1">
                    <mxGeometry relative="1" as="geometry"/>
                </mxCell>
                <mxCell id="33" value="2" style="ellipse;whiteSpace=wrap;html=1;aspect=fixed;fontSize=24;fontStyle=1;fillColor=none;fontFamily=Times New Roman;" parent="1" vertex="1">
                    <mxGeometry x="110" y="280" width="40" height="40" as="geometry"/>
                </mxCell>
                <mxCell id="34" value="" style="edgeStyle=none;html=1;fontFamily=Times New Roman;fontSize=16;" parent="1" source="35" target="33" edge="1">
                    <mxGeometry relative="1" as="geometry"/>
                </mxCell>
                <mxCell id="35" value="3" style="ellipse;whiteSpace=wrap;html=1;aspect=fixed;fontSize=24;fontStyle=1;fillColor=none;fontFamily=Times New Roman;" parent="1" vertex="1">
                    <mxGeometry x="110" y="340" width="40" height="40" as="geometry"/>
                </mxCell>
                <mxCell id="36" value="4" style="ellipse;whiteSpace=wrap;html=1;aspect=fixed;fontSize=24;fontStyle=1;fillColor=none;fontFamily=Times New Roman;" parent="1" vertex="1">
                    <mxGeometry x="170" y="160" width="40" height="40" as="geometry"/>
                </mxCell>
                <mxCell id="37" value="" style="edgeStyle=orthogonalEdgeStyle;html=1;fontFamily=Times New Roman;fontSize=16;" parent="1" source="38" target="36" edge="1">
                    <mxGeometry relative="1" as="geometry"/>
                </mxCell>
                <mxCell id="38" value="5" style="ellipse;whiteSpace=wrap;html=1;aspect=fixed;fontSize=24;fontStyle=1;fillColor=none;fontFamily=Times New Roman;" parent="1" vertex="1">
                    <mxGeometry x="170" y="220" width="40" height="40" as="geometry"/>
                </mxCell>
                <mxCell id="39" value="" style="edgeStyle=orthogonalEdgeStyle;html=1;fontFamily=Times New Roman;fontSize=16;" parent="1" source="40" target="38" edge="1">
                    <mxGeometry relative="1" as="geometry"/>
                </mxCell>
                <mxCell id="40" value="6" style="ellipse;whiteSpace=wrap;html=1;aspect=fixed;fontSize=24;fontStyle=1;fillColor=none;fontFamily=Times New Roman;" parent="1" vertex="1">
                    <mxGeometry x="170" y="280" width="40" height="40" as="geometry"/>
                </mxCell>
                <mxCell id="41" value="" style="edgeStyle=orthogonalEdgeStyle;html=1;fontFamily=Times New Roman;fontSize=16;" parent="1" source="42" target="40" edge="1">
                    <mxGeometry relative="1" as="geometry"/>
                </mxCell>
                <mxCell id="42" value="7" style="ellipse;whiteSpace=wrap;html=1;aspect=fixed;fontSize=24;fontStyle=1;fillColor=none;fontFamily=Times New Roman;" parent="1" vertex="1">
                    <mxGeometry x="170" y="340" width="40" height="40" as="geometry"/>
                </mxCell>
                <mxCell id="43" value="8" style="ellipse;whiteSpace=wrap;html=1;aspect=fixed;fontSize=24;fontStyle=1;fillColor=none;fontFamily=Times New Roman;" parent="1" vertex="1">
                    <mxGeometry x="230" y="160" width="40" height="40" as="geometry"/>
                </mxCell>
                <mxCell id="44" value="" style="edgeStyle=orthogonalEdgeStyle;html=1;fontFamily=Times New Roman;fontSize=16;" parent="1" source="45" target="43" edge="1">
                    <mxGeometry relative="1" as="geometry"/>
                </mxCell>
                <mxCell id="45" value="9" style="ellipse;whiteSpace=wrap;html=1;aspect=fixed;fontSize=24;fontStyle=1;fillColor=none;fontFamily=Times New Roman;" parent="1" vertex="1">
                    <mxGeometry x="230" y="220" width="40" height="40" as="geometry"/>
                </mxCell>
                <mxCell id="46" value="" style="edgeStyle=orthogonalEdgeStyle;html=1;fontFamily=Times New Roman;fontSize=16;" parent="1" source="47" target="45" edge="1">
                    <mxGeometry relative="1" as="geometry"/>
                </mxCell>
                <mxCell id="47" value="10" style="ellipse;whiteSpace=wrap;html=1;aspect=fixed;fontSize=24;fontStyle=1;fillColor=none;fontFamily=Times New Roman;" parent="1" vertex="1">
                    <mxGeometry x="230" y="280" width="40" height="40" as="geometry"/>
                </mxCell>
                <mxCell id="48" value="" style="edgeStyle=orthogonalEdgeStyle;html=1;fontFamily=Times New Roman;fontSize=16;" parent="1" source="49" target="47" edge="1">
                    <mxGeometry relative="1" as="geometry"/>
                </mxCell>
                <mxCell id="49" value="11" style="ellipse;whiteSpace=wrap;html=1;aspect=fixed;fontSize=24;fontStyle=1;fillColor=none;fontFamily=Times New Roman;" parent="1" vertex="1">
                    <mxGeometry x="230" y="340" width="40" height="40" as="geometry"/>
                </mxCell>
                <mxCell id="50" value="12" style="ellipse;whiteSpace=wrap;html=1;aspect=fixed;fontSize=24;fontStyle=1;fillColor=none;fontFamily=Times New Roman;" parent="1" vertex="1">
                    <mxGeometry x="290" y="160" width="40" height="40" as="geometry"/>
                </mxCell>
                <mxCell id="51" value="" style="edgeStyle=orthogonalEdgeStyle;html=1;fontFamily=Times New Roman;fontSize=16;" parent="1" source="52" target="50" edge="1">
                    <mxGeometry relative="1" as="geometry"/>
                </mxCell>
                <mxCell id="52" value="13" style="ellipse;whiteSpace=wrap;html=1;aspect=fixed;fontSize=24;fontStyle=1;fillColor=none;fontFamily=Times New Roman;" parent="1" vertex="1">
                    <mxGeometry x="290" y="220" width="40" height="40" as="geometry"/>
                </mxCell>
                <mxCell id="53" value="" style="edgeStyle=orthogonalEdgeStyle;html=1;fontFamily=Times New Roman;fontSize=16;" parent="1" source="54" target="52" edge="1">
                    <mxGeometry relative="1" as="geometry"/>
                </mxCell>
                <mxCell id="54" value="14" style="ellipse;whiteSpace=wrap;html=1;aspect=fixed;fontSize=24;fontStyle=1;fillColor=none;fontFamily=Times New Roman;" parent="1" vertex="1">
                    <mxGeometry x="290" y="280" width="40" height="40" as="geometry"/>
                </mxCell>
                <mxCell id="55" value="" style="edgeStyle=orthogonalEdgeStyle;html=1;fontFamily=Times New Roman;fontSize=16;" parent="1" source="56" target="54" edge="1">
                    <mxGeometry relative="1" as="geometry"/>
                </mxCell>
                <mxCell id="56" value="15" style="ellipse;whiteSpace=wrap;html=1;aspect=fixed;fontSize=24;fontStyle=1;fillColor=none;fontFamily=Times New Roman;" parent="1" vertex="1">
                    <mxGeometry x="290" y="340" width="40" height="40" as="geometry"/>
                </mxCell>
                <mxCell id="68" value="1" style="ellipse;whiteSpace=wrap;html=1;aspect=fixed;fontSize=24;fontStyle=1;fillColor=none;fontFamily=Times New Roman;" parent="1" vertex="1">
                    <mxGeometry x="160" y="760" width="40" height="40" as="geometry"/>
                </mxCell>
                <mxCell id="69" value="2" style="ellipse;whiteSpace=wrap;html=1;aspect=fixed;fontSize=24;fontStyle=1;fillColor=none;fontFamily=Times New Roman;" parent="1" vertex="1">
                    <mxGeometry x="240" y="760" width="40" height="40" as="geometry"/>
                </mxCell>
                <mxCell id="70" value="3" style="ellipse;whiteSpace=wrap;html=1;aspect=fixed;fontSize=24;fontStyle=1;fillColor=none;fontFamily=Times New Roman;" parent="1" vertex="1">
                    <mxGeometry x="320" y="760" width="40" height="40" as="geometry"/>
                </mxCell>
                <mxCell id="71" value="4" style="ellipse;whiteSpace=wrap;html=1;aspect=fixed;fontSize=24;fontStyle=1;fillColor=none;fontFamily=Times New Roman;" parent="1" vertex="1">
                    <mxGeometry x="400" y="760" width="40" height="40" as="geometry"/>
                </mxCell>
                <mxCell id="73" value="5" style="ellipse;whiteSpace=wrap;html=1;aspect=fixed;fontSize=24;fontStyle=1;fillColor=none;fontFamily=Times New Roman;" parent="1" vertex="1">
                    <mxGeometry x="80" y="680" width="40" height="40" as="geometry"/>
                </mxCell>
                <mxCell id="74" value="6" style="ellipse;whiteSpace=wrap;html=1;aspect=fixed;fontSize=24;fontStyle=1;fillColor=none;fontFamily=Times New Roman;" parent="1" vertex="1">
                    <mxGeometry x="160" y="680" width="40" height="40" as="geometry"/>
                </mxCell>
                <mxCell id="75" value="7" style="ellipse;whiteSpace=wrap;html=1;aspect=fixed;fontSize=24;fontStyle=1;fillColor=none;fontFamily=Times New Roman;" parent="1" vertex="1">
                    <mxGeometry x="240" y="680" width="40" height="40" as="geometry"/>
                </mxCell>
                <mxCell id="76" value="8" style="ellipse;whiteSpace=wrap;html=1;aspect=fixed;fontSize=24;fontStyle=1;fillColor=none;fontFamily=Times New Roman;" parent="1" vertex="1">
                    <mxGeometry x="320" y="680" width="40" height="40" as="geometry"/>
                </mxCell>
                <mxCell id="78" value="9" style="ellipse;whiteSpace=wrap;html=1;aspect=fixed;fontSize=24;fontStyle=1;fillColor=none;fontFamily=Times New Roman;" parent="1" vertex="1">
                    <mxGeometry x="400" y="680" width="40" height="40" as="geometry"/>
                </mxCell>
                <mxCell id="79" value="10" style="ellipse;whiteSpace=wrap;html=1;aspect=fixed;fontSize=24;fontStyle=1;fillColor=none;fontFamily=Times New Roman;" parent="1" vertex="1">
                    <mxGeometry x="80" y="600" width="40" height="40" as="geometry"/>
                </mxCell>
                <mxCell id="80" value="11" style="ellipse;whiteSpace=wrap;html=1;aspect=fixed;fontSize=24;fontStyle=1;fillColor=none;fontFamily=Times New Roman;" parent="1" vertex="1">
                    <mxGeometry x="160" y="600" width="40" height="40" as="geometry"/>
                </mxCell>
                <mxCell id="81" value="12" style="ellipse;whiteSpace=wrap;html=1;aspect=fixed;fontSize=24;fontStyle=1;fillColor=none;fontFamily=Times New Roman;" parent="1" vertex="1">
                    <mxGeometry x="240" y="600" width="40" height="40" as="geometry"/>
                </mxCell>
                <mxCell id="83" value="13" style="ellipse;whiteSpace=wrap;html=1;aspect=fixed;fontSize=24;fontStyle=1;fillColor=none;fontFamily=Times New Roman;" parent="1" vertex="1">
                    <mxGeometry x="320" y="600" width="40" height="40" as="geometry"/>
                </mxCell>
                <mxCell id="85" value="14" style="ellipse;whiteSpace=wrap;html=1;aspect=fixed;fontSize=24;fontStyle=1;fillColor=none;fontFamily=Times New Roman;" parent="1" vertex="1">
                    <mxGeometry x="400" y="600" width="40" height="40" as="geometry"/>
                </mxCell>
                <mxCell id="87" value="15" style="ellipse;whiteSpace=wrap;html=1;aspect=fixed;fontSize=24;fontStyle=1;fillColor=none;fontFamily=Times New Roman;" parent="1" vertex="1">
                    <mxGeometry x="240" y="520" width="40" height="40" as="geometry"/>
                </mxCell>
                <mxCell id="88" value="0" style="ellipse;whiteSpace=wrap;html=1;aspect=fixed;fontSize=24;fontStyle=1;fillColor=none;fontFamily=Times New Roman;" parent="1" vertex="1">
                    <mxGeometry x="80" y="760" width="40" height="40" as="geometry"/>
                </mxCell>
                <mxCell id="164" value="" style="group;fontFamily=Times New Roman;fillColor=none;fontStyle=1;fontSize=14;" parent="1" vertex="1" connectable="0">
                    <mxGeometry x="640" y="880" width="40" height="40" as="geometry"/>
                </mxCell>
                <mxCell id="165" value="0" style="shape=or;whiteSpace=wrap;html=1;direction=south;fontFamily=Times New Roman;fillColor=none;fontStyle=1;fontSize=14;" parent="164" vertex="1">
                    <mxGeometry y="20" width="40" height="20" as="geometry"/>
                </mxCell>
                <mxCell id="166" value="0" style="shape=or;whiteSpace=wrap;html=1;direction=south;flipV=1;fontFamily=Times New Roman;fillColor=none;fontStyle=1;fontSize=14;" parent="164" vertex="1">
                    <mxGeometry width="40" height="20" as="geometry"/>
                </mxCell>
                <mxCell id="167" value="" style="group;fontFamily=Times New Roman;fillColor=none;fontStyle=1;fontSize=14;" parent="1" vertex="1" connectable="0">
                    <mxGeometry x="720" y="880" width="40" height="40" as="geometry"/>
                </mxCell>
                <mxCell id="168" value="1" style="shape=or;whiteSpace=wrap;html=1;direction=south;fontFamily=Times New Roman;fillColor=none;fontStyle=1;fontSize=14;" parent="167" vertex="1">
                    <mxGeometry y="20" width="40" height="20" as="geometry"/>
                </mxCell>
                <mxCell id="169" value="1" style="shape=or;whiteSpace=wrap;html=1;direction=south;flipV=1;fontFamily=Times New Roman;fillColor=none;fontStyle=1;fontSize=14;" parent="167" vertex="1">
                    <mxGeometry width="40" height="20" as="geometry"/>
                </mxCell>
                <mxCell id="170" value="" style="group;fontFamily=Times New Roman;fillColor=none;fontStyle=1;fontSize=14;" parent="1" vertex="1" connectable="0">
                    <mxGeometry x="800" y="880" width="40" height="40" as="geometry"/>
                </mxCell>
                <mxCell id="171" value="2" style="shape=or;whiteSpace=wrap;html=1;direction=south;fontFamily=Times New Roman;fillColor=none;fontStyle=1;fontSize=14;" parent="170" vertex="1">
                    <mxGeometry y="20" width="40" height="20" as="geometry"/>
                </mxCell>
                <mxCell id="172" value="2" style="shape=or;whiteSpace=wrap;html=1;direction=south;flipV=1;fontFamily=Times New Roman;fillColor=none;fontStyle=1;fontSize=14;" parent="170" vertex="1">
                    <mxGeometry width="40" height="20" as="geometry"/>
                </mxCell>
                <mxCell id="173" value="" style="group;fontFamily=Times New Roman;fillColor=none;fontStyle=1;fontSize=14;" parent="1" vertex="1" connectable="0">
                    <mxGeometry x="880" y="880" width="40" height="40" as="geometry"/>
                </mxCell>
                <mxCell id="174" value="3" style="shape=or;whiteSpace=wrap;html=1;direction=south;fontFamily=Times New Roman;fillColor=none;fontStyle=1;fontSize=14;" parent="173" vertex="1">
                    <mxGeometry y="20" width="40" height="20" as="geometry"/>
                </mxCell>
                <mxCell id="175" value="3" style="shape=or;whiteSpace=wrap;html=1;direction=south;flipV=1;fontFamily=Times New Roman;fillColor=none;fontStyle=1;fontSize=14;" parent="173" vertex="1">
                    <mxGeometry width="40" height="20" as="geometry"/>
                </mxCell>
                <mxCell id="176" value="" style="group;fontFamily=Times New Roman;fillColor=none;fontStyle=1;fontSize=14;" parent="1" vertex="1" connectable="0">
                    <mxGeometry x="960" y="880" width="40" height="40" as="geometry"/>
                </mxCell>
                <mxCell id="177" value="4" style="shape=or;whiteSpace=wrap;html=1;direction=south;fontFamily=Times New Roman;fillColor=none;fontStyle=1;fontSize=14;" parent="176" vertex="1">
                    <mxGeometry y="20" width="40" height="20" as="geometry"/>
                </mxCell>
                <mxCell id="178" value="4" style="shape=or;whiteSpace=wrap;html=1;direction=south;flipV=1;fontFamily=Times New Roman;fillColor=none;fontStyle=1;fontSize=14;" parent="176" vertex="1">
                    <mxGeometry width="40" height="20" as="geometry"/>
                </mxCell>
                <mxCell id="179" value="" style="group;fontFamily=Times New Roman;fillColor=none;fontStyle=1;fontSize=14;" parent="1" vertex="1" connectable="0">
                    <mxGeometry x="640" y="800" width="40" height="40" as="geometry"/>
                </mxCell>
                <mxCell id="180" value="5" style="shape=or;whiteSpace=wrap;html=1;direction=south;fontFamily=Times New Roman;fillColor=none;fontStyle=1;fontSize=14;" parent="179" vertex="1">
                    <mxGeometry y="20" width="40" height="20" as="geometry"/>
                </mxCell>
                <mxCell id="181" value="5" style="shape=or;whiteSpace=wrap;html=1;direction=south;flipV=1;fontFamily=Times New Roman;fillColor=none;fontStyle=1;fontSize=14;" parent="179" vertex="1">
                    <mxGeometry width="40" height="20" as="geometry"/>
                </mxCell>
                <mxCell id="182" value="" style="group;fontFamily=Times New Roman;fillColor=none;fontStyle=1;fontSize=14;" parent="1" vertex="1" connectable="0">
                    <mxGeometry x="720" y="800" width="40" height="40" as="geometry"/>
                </mxCell>
                <mxCell id="183" value="6" style="shape=or;whiteSpace=wrap;html=1;direction=south;fontFamily=Times New Roman;fillColor=none;fontStyle=1;fontSize=14;" parent="182" vertex="1">
                    <mxGeometry y="20" width="40" height="20" as="geometry"/>
                </mxCell>
                <mxCell id="184" value="6" style="shape=or;whiteSpace=wrap;html=1;direction=south;flipV=1;fontFamily=Times New Roman;fillColor=none;fontStyle=1;fontSize=14;" parent="182" vertex="1">
                    <mxGeometry width="40" height="20" as="geometry"/>
                </mxCell>
                <mxCell id="185" value="" style="group;fontFamily=Times New Roman;fillColor=none;fontStyle=1;fontSize=14;" parent="1" vertex="1" connectable="0">
                    <mxGeometry x="800" y="800" width="40" height="40" as="geometry"/>
                </mxCell>
                <mxCell id="186" value="7" style="shape=or;whiteSpace=wrap;html=1;direction=south;fontFamily=Times New Roman;fillColor=none;fontStyle=1;fontSize=14;" parent="185" vertex="1">
                    <mxGeometry y="20" width="40" height="20" as="geometry"/>
                </mxCell>
                <mxCell id="187" value="7" style="shape=or;whiteSpace=wrap;html=1;direction=south;flipV=1;fontFamily=Times New Roman;fillColor=none;fontStyle=1;fontSize=14;" parent="185" vertex="1">
                    <mxGeometry width="40" height="20" as="geometry"/>
                </mxCell>
                <mxCell id="188" value="" style="group;fontFamily=Times New Roman;fillColor=none;fontStyle=1;fontSize=14;" parent="1" vertex="1" connectable="0">
                    <mxGeometry x="880" y="800" width="40" height="40" as="geometry"/>
                </mxCell>
                <mxCell id="189" value="8" style="shape=or;whiteSpace=wrap;html=1;direction=south;fontFamily=Times New Roman;fillColor=none;fontStyle=1;fontSize=14;" parent="188" vertex="1">
                    <mxGeometry y="20" width="40" height="20" as="geometry"/>
                </mxCell>
                <mxCell id="190" value="8" style="shape=or;whiteSpace=wrap;html=1;direction=south;flipV=1;fontFamily=Times New Roman;fillColor=none;fontStyle=1;fontSize=14;" parent="188" vertex="1">
                    <mxGeometry width="40" height="20" as="geometry"/>
                </mxCell>
                <mxCell id="191" value="" style="group;fontFamily=Times New Roman;fillColor=none;fontStyle=1;fontSize=14;" parent="1" vertex="1" connectable="0">
                    <mxGeometry x="960" y="800" width="40" height="40" as="geometry"/>
                </mxCell>
                <mxCell id="192" value="9" style="shape=or;whiteSpace=wrap;html=1;direction=south;fontFamily=Times New Roman;fillColor=none;fontStyle=1;fontSize=14;" parent="191" vertex="1">
                    <mxGeometry y="20" width="40" height="20" as="geometry"/>
                </mxCell>
                <mxCell id="193" value="9" style="shape=or;whiteSpace=wrap;html=1;direction=south;flipV=1;fontFamily=Times New Roman;fillColor=none;fontStyle=1;fontSize=14;" parent="191" vertex="1">
                    <mxGeometry width="40" height="20" as="geometry"/>
                </mxCell>
                <mxCell id="194" value="" style="group;fontFamily=Times New Roman;fillColor=none;fontStyle=1;fontSize=14;" parent="1" vertex="1" connectable="0">
                    <mxGeometry x="640" y="720" width="40" height="40" as="geometry"/>
                </mxCell>
                <mxCell id="195" value="10" style="shape=or;whiteSpace=wrap;html=1;direction=south;fontFamily=Times New Roman;fillColor=none;fontStyle=1;fontSize=14;" parent="194" vertex="1">
                    <mxGeometry y="20" width="40" height="20" as="geometry"/>
                </mxCell>
                <mxCell id="196" value="10" style="shape=or;whiteSpace=wrap;html=1;direction=south;flipV=1;fontFamily=Times New Roman;fillColor=none;fontStyle=1;fontSize=14;" parent="194" vertex="1">
                    <mxGeometry width="40" height="20" as="geometry"/>
                </mxCell>
                <mxCell id="197" value="" style="group;fontFamily=Times New Roman;fillColor=none;fontStyle=1;fontSize=14;" parent="1" vertex="1" connectable="0">
                    <mxGeometry x="720" y="720" width="40" height="40" as="geometry"/>
                </mxCell>
                <mxCell id="198" value="11" style="shape=or;whiteSpace=wrap;html=1;direction=south;fontFamily=Times New Roman;fillColor=none;fontStyle=1;fontSize=14;" parent="197" vertex="1">
                    <mxGeometry y="20" width="40" height="20" as="geometry"/>
                </mxCell>
                <mxCell id="199" value="11" style="shape=or;whiteSpace=wrap;html=1;direction=south;flipV=1;fontFamily=Times New Roman;fillColor=none;fontStyle=1;fontSize=14;" parent="197" vertex="1">
                    <mxGeometry width="40" height="20" as="geometry"/>
                </mxCell>
                <mxCell id="200" value="" style="group;fontFamily=Times New Roman;fillColor=none;fontStyle=1;fontSize=14;" parent="1" vertex="1" connectable="0">
                    <mxGeometry x="800" y="720" width="40" height="40" as="geometry"/>
                </mxCell>
                <mxCell id="201" value="12" style="shape=or;whiteSpace=wrap;html=1;direction=south;fontFamily=Times New Roman;fillColor=none;fontStyle=1;fontSize=14;" parent="200" vertex="1">
                    <mxGeometry y="20" width="40" height="20" as="geometry"/>
                </mxCell>
                <mxCell id="202" value="12" style="shape=or;whiteSpace=wrap;html=1;direction=south;flipV=1;fontFamily=Times New Roman;fillColor=none;fontStyle=1;fontSize=14;" parent="200" vertex="1">
                    <mxGeometry width="40" height="20" as="geometry"/>
                </mxCell>
                <mxCell id="203" value="" style="group;fontFamily=Times New Roman;fillColor=none;fontStyle=1;fontSize=14;" parent="1" vertex="1" connectable="0">
                    <mxGeometry x="880" y="720" width="40" height="40" as="geometry"/>
                </mxCell>
                <mxCell id="204" value="13" style="shape=or;whiteSpace=wrap;html=1;direction=south;fontFamily=Times New Roman;fillColor=none;fontStyle=1;fontSize=14;" parent="203" vertex="1">
                    <mxGeometry y="20" width="40" height="20" as="geometry"/>
                </mxCell>
                <mxCell id="205" value="13" style="shape=or;whiteSpace=wrap;html=1;direction=south;flipV=1;fontFamily=Times New Roman;fillColor=none;fontStyle=1;fontSize=14;" parent="203" vertex="1">
                    <mxGeometry width="40" height="20" as="geometry"/>
                </mxCell>
                <mxCell id="206" value="" style="group;fontFamily=Times New Roman;fillColor=none;fontStyle=1;fontSize=14;" parent="1" vertex="1" connectable="0">
                    <mxGeometry x="960" y="720" width="40" height="40" as="geometry"/>
                </mxCell>
                <mxCell id="207" value="14" style="shape=or;whiteSpace=wrap;html=1;direction=south;fontFamily=Times New Roman;fillColor=none;fontStyle=1;fontSize=14;" parent="206" vertex="1">
                    <mxGeometry y="20" width="40" height="20" as="geometry"/>
                </mxCell>
                <mxCell id="208" value="14" style="shape=or;whiteSpace=wrap;html=1;direction=south;flipV=1;fontFamily=Times New Roman;fillColor=none;fontStyle=1;fontSize=14;" parent="206" vertex="1">
                    <mxGeometry width="40" height="20" as="geometry"/>
                </mxCell>
                <mxCell id="214" value="" style="group;fontFamily=Times New Roman;fillColor=none;fontStyle=1;fontSize=14;" parent="1" vertex="1" connectable="0">
                    <mxGeometry x="1120" y="880" width="40" height="40" as="geometry"/>
                </mxCell>
                <mxCell id="215" value="0" style="shape=or;whiteSpace=wrap;html=1;direction=south;fontFamily=Times New Roman;fillColor=none;fontStyle=1;fontSize=14;" parent="214" vertex="1">
                    <mxGeometry y="20" width="40" height="20" as="geometry"/>
                </mxCell>
                <mxCell id="216" value="0" style="shape=or;whiteSpace=wrap;html=1;direction=south;flipV=1;fontFamily=Times New Roman;fillColor=none;fontStyle=1;fontSize=14;" parent="214" vertex="1">
                    <mxGeometry width="40" height="20" as="geometry"/>
                </mxCell>
                <mxCell id="217" value="" style="group;fontFamily=Times New Roman;fillColor=none;fontStyle=1;fontSize=14;" parent="1" vertex="1" connectable="0">
                    <mxGeometry x="1200" y="880" width="40" height="40" as="geometry"/>
                </mxCell>
                <mxCell id="218" value="1" style="shape=or;whiteSpace=wrap;html=1;direction=south;fontFamily=Times New Roman;fillColor=none;fontStyle=1;fontSize=14;" parent="217" vertex="1">
                    <mxGeometry y="20" width="40" height="20" as="geometry"/>
                </mxCell>
                <mxCell id="219" value="1" style="shape=or;whiteSpace=wrap;html=1;direction=south;flipV=1;fontFamily=Times New Roman;fillColor=none;fontStyle=1;fontSize=14;" parent="217" vertex="1">
                    <mxGeometry width="40" height="20" as="geometry"/>
                </mxCell>
                <mxCell id="220" value="" style="group;fontFamily=Times New Roman;fillColor=none;fontStyle=1;fontSize=14;" parent="1" vertex="1" connectable="0">
                    <mxGeometry x="1280" y="880" width="40" height="40" as="geometry"/>
                </mxCell>
                <mxCell id="221" value="2" style="shape=or;whiteSpace=wrap;html=1;direction=south;fontFamily=Times New Roman;fillColor=none;fontStyle=1;fontSize=14;" parent="220" vertex="1">
                    <mxGeometry y="20" width="40" height="20" as="geometry"/>
                </mxCell>
                <mxCell id="222" value="2" style="shape=or;whiteSpace=wrap;html=1;direction=south;flipV=1;fontFamily=Times New Roman;fillColor=none;fontStyle=1;fontSize=14;" parent="220" vertex="1">
                    <mxGeometry width="40" height="20" as="geometry"/>
                </mxCell>
                <mxCell id="223" value="" style="group;fontFamily=Times New Roman;fillColor=none;fontStyle=1;fontSize=14;" parent="1" vertex="1" connectable="0">
                    <mxGeometry x="1360" y="880" width="40" height="40" as="geometry"/>
                </mxCell>
                <mxCell id="224" value="3" style="shape=or;whiteSpace=wrap;html=1;direction=south;fontFamily=Times New Roman;fillColor=none;fontStyle=1;fontSize=14;" parent="223" vertex="1">
                    <mxGeometry y="20" width="40" height="20" as="geometry"/>
                </mxCell>
                <mxCell id="225" value="3" style="shape=or;whiteSpace=wrap;html=1;direction=south;flipV=1;fontFamily=Times New Roman;fillColor=none;fontStyle=1;fontSize=14;" parent="223" vertex="1">
                    <mxGeometry width="40" height="20" as="geometry"/>
                </mxCell>
                <mxCell id="226" value="" style="group;fontFamily=Times New Roman;fillColor=none;fontStyle=1;fontSize=14;" parent="1" vertex="1" connectable="0">
                    <mxGeometry x="1440" y="880" width="40" height="40" as="geometry"/>
                </mxCell>
                <mxCell id="227" value="4" style="shape=or;whiteSpace=wrap;html=1;direction=south;fontFamily=Times New Roman;fillColor=none;fontStyle=1;fontSize=14;" parent="226" vertex="1">
                    <mxGeometry y="20" width="40" height="20" as="geometry"/>
                </mxCell>
                <mxCell id="228" value="4" style="shape=or;whiteSpace=wrap;html=1;direction=south;flipV=1;fontFamily=Times New Roman;fillColor=none;fontStyle=1;fontSize=14;" parent="226" vertex="1">
                    <mxGeometry width="40" height="20" as="geometry"/>
                </mxCell>
                <mxCell id="229" value="" style="group;fontFamily=Times New Roman;fillColor=none;fontStyle=1;fontSize=14;" parent="1" vertex="1" connectable="0">
                    <mxGeometry x="1120" y="800" width="40" height="40" as="geometry"/>
                </mxCell>
                <mxCell id="230" value="5" style="shape=or;whiteSpace=wrap;html=1;direction=south;fontFamily=Times New Roman;fillColor=none;fontStyle=1;fontSize=14;" parent="229" vertex="1">
                    <mxGeometry y="20" width="40" height="20" as="geometry"/>
                </mxCell>
                <mxCell id="231" value="5" style="shape=or;whiteSpace=wrap;html=1;direction=south;flipV=1;fontFamily=Times New Roman;fillColor=none;fontStyle=1;fontSize=14;" parent="229" vertex="1">
                    <mxGeometry width="40" height="20" as="geometry"/>
                </mxCell>
                <mxCell id="232" value="" style="group;fontFamily=Times New Roman;fillColor=none;fontStyle=1;fontSize=14;" parent="1" vertex="1" connectable="0">
                    <mxGeometry x="1200" y="800" width="40" height="40" as="geometry"/>
                </mxCell>
                <mxCell id="233" value="6" style="shape=or;whiteSpace=wrap;html=1;direction=south;fontFamily=Times New Roman;fillColor=none;fontStyle=1;fontSize=14;" parent="232" vertex="1">
                    <mxGeometry y="20" width="40" height="20" as="geometry"/>
                </mxCell>
                <mxCell id="234" value="6" style="shape=or;whiteSpace=wrap;html=1;direction=south;flipV=1;fontFamily=Times New Roman;fillColor=none;fontStyle=1;fontSize=14;" parent="232" vertex="1">
                    <mxGeometry width="40" height="20" as="geometry"/>
                </mxCell>
                <mxCell id="235" value="" style="group;fontFamily=Times New Roman;fillColor=none;fontStyle=1;fontSize=14;" parent="1" vertex="1" connectable="0">
                    <mxGeometry x="1280" y="800" width="40" height="40" as="geometry"/>
                </mxCell>
                <mxCell id="236" value="7" style="shape=or;whiteSpace=wrap;html=1;direction=south;fontFamily=Times New Roman;fillColor=none;fontStyle=1;fontSize=14;" parent="235" vertex="1">
                    <mxGeometry y="20" width="40" height="20" as="geometry"/>
                </mxCell>
                <mxCell id="237" value="7" style="shape=or;whiteSpace=wrap;html=1;direction=south;flipV=1;fontFamily=Times New Roman;fillColor=none;fontStyle=1;fontSize=14;" parent="235" vertex="1">
                    <mxGeometry width="40" height="20" as="geometry"/>
                </mxCell>
                <mxCell id="238" value="" style="group;fontFamily=Times New Roman;fillColor=none;fontStyle=1;fontSize=14;" parent="1" vertex="1" connectable="0">
                    <mxGeometry x="1360" y="800" width="40" height="40" as="geometry"/>
                </mxCell>
                <mxCell id="239" value="8" style="shape=or;whiteSpace=wrap;html=1;direction=south;fontFamily=Times New Roman;fillColor=none;fontStyle=1;fontSize=14;" parent="238" vertex="1">
                    <mxGeometry y="20" width="40" height="20" as="geometry"/>
                </mxCell>
                <mxCell id="240" value="8" style="shape=or;whiteSpace=wrap;html=1;direction=south;flipV=1;fontFamily=Times New Roman;fillColor=none;fontStyle=1;fontSize=14;" parent="238" vertex="1">
                    <mxGeometry width="40" height="20" as="geometry"/>
                </mxCell>
                <mxCell id="241" value="" style="group;fontFamily=Times New Roman;fillColor=none;fontStyle=1;fontSize=14;" parent="1" vertex="1" connectable="0">
                    <mxGeometry x="1440" y="800" width="40" height="40" as="geometry"/>
                </mxCell>
                <mxCell id="242" value="9" style="shape=or;whiteSpace=wrap;html=1;direction=south;fontFamily=Times New Roman;fillColor=none;fontStyle=1;fontSize=14;" parent="241" vertex="1">
                    <mxGeometry y="20" width="40" height="20" as="geometry"/>
                </mxCell>
                <mxCell id="243" value="9" style="shape=or;whiteSpace=wrap;html=1;direction=south;flipV=1;fontFamily=Times New Roman;fillColor=none;fontStyle=1;fontSize=14;" parent="241" vertex="1">
                    <mxGeometry width="40" height="20" as="geometry"/>
                </mxCell>
                <mxCell id="244" value="" style="group;fontFamily=Times New Roman;fillColor=none;fontStyle=1;fontSize=14;" parent="1" vertex="1" connectable="0">
                    <mxGeometry x="1120" y="720" width="40" height="40" as="geometry"/>
                </mxCell>
                <mxCell id="245" value="10" style="shape=or;whiteSpace=wrap;html=1;direction=south;fontFamily=Times New Roman;fillColor=none;fontStyle=1;fontSize=14;" parent="244" vertex="1">
                    <mxGeometry y="20" width="40" height="20" as="geometry"/>
                </mxCell>
                <mxCell id="246" value="10" style="shape=or;whiteSpace=wrap;html=1;direction=south;flipV=1;fontFamily=Times New Roman;fillColor=none;fontStyle=1;fontSize=14;" parent="244" vertex="1">
                    <mxGeometry width="40" height="20" as="geometry"/>
                </mxCell>
                <mxCell id="247" value="" style="group;fontFamily=Times New Roman;fillColor=none;fontStyle=1;fontSize=14;" parent="1" vertex="1" connectable="0">
                    <mxGeometry x="1200" y="720" width="40" height="40" as="geometry"/>
                </mxCell>
                <mxCell id="248" value="11" style="shape=or;whiteSpace=wrap;html=1;direction=south;fontFamily=Times New Roman;fillColor=none;fontStyle=1;fontSize=14;" parent="247" vertex="1">
                    <mxGeometry y="20" width="40" height="20" as="geometry"/>
                </mxCell>
                <mxCell id="249" value="11" style="shape=or;whiteSpace=wrap;html=1;direction=south;flipV=1;fontFamily=Times New Roman;fillColor=none;fontStyle=1;fontSize=14;" parent="247" vertex="1">
                    <mxGeometry width="40" height="20" as="geometry"/>
                </mxCell>
                <mxCell id="250" value="" style="group;fontFamily=Times New Roman;fillColor=none;fontStyle=1;fontSize=14;" parent="1" vertex="1" connectable="0">
                    <mxGeometry x="1280" y="720" width="40" height="40" as="geometry"/>
                </mxCell>
                <mxCell id="251" value="12" style="shape=or;whiteSpace=wrap;html=1;direction=south;fontFamily=Times New Roman;fillColor=none;fontStyle=1;fontSize=14;" parent="250" vertex="1">
                    <mxGeometry y="20" width="40" height="20" as="geometry"/>
                </mxCell>
                <mxCell id="252" value="12" style="shape=or;whiteSpace=wrap;html=1;direction=south;flipV=1;fontFamily=Times New Roman;fillColor=none;fontStyle=1;fontSize=14;" parent="250" vertex="1">
                    <mxGeometry width="40" height="20" as="geometry"/>
                </mxCell>
                <mxCell id="253" value="" style="group;fontFamily=Times New Roman;fillColor=none;fontStyle=1;fontSize=14;" parent="1" vertex="1" connectable="0">
                    <mxGeometry x="1360" y="720" width="40" height="40" as="geometry"/>
                </mxCell>
                <mxCell id="254" value="13" style="shape=or;whiteSpace=wrap;html=1;direction=south;fontFamily=Times New Roman;fillColor=none;fontStyle=1;fontSize=14;" parent="253" vertex="1">
                    <mxGeometry y="20" width="40" height="20" as="geometry"/>
                </mxCell>
                <mxCell id="255" value="13" style="shape=or;whiteSpace=wrap;html=1;direction=south;flipV=1;fontFamily=Times New Roman;fillColor=none;fontStyle=1;fontSize=14;" parent="253" vertex="1">
                    <mxGeometry width="40" height="20" as="geometry"/>
                </mxCell>
                <mxCell id="256" value="" style="group;fontFamily=Times New Roman;fillColor=none;fontStyle=1;fontSize=14;" parent="1" vertex="1" connectable="0">
                    <mxGeometry x="1440" y="720" width="40" height="40" as="geometry"/>
                </mxCell>
                <mxCell id="257" value="14" style="shape=or;whiteSpace=wrap;html=1;direction=south;fontFamily=Times New Roman;fillColor=none;fontStyle=1;fontSize=14;" parent="256" vertex="1">
                    <mxGeometry y="20" width="40" height="20" as="geometry"/>
                </mxCell>
                <mxCell id="258" value="14" style="shape=or;whiteSpace=wrap;html=1;direction=south;flipV=1;fontFamily=Times New Roman;fillColor=none;fontStyle=1;fontSize=14;" parent="256" vertex="1">
                    <mxGeometry width="40" height="20" as="geometry"/>
                </mxCell>
                <mxCell id="269" style="edgeStyle=none;rounded=0;html=1;fontFamily=Times New Roman;fontSize=14;" parent="1" source="219" target="233" edge="1">
                    <mxGeometry relative="1" as="geometry"/>
                </mxCell>
                <mxCell id="512" value="1" style="ellipse;whiteSpace=wrap;html=1;aspect=fixed;fontSize=24;fontStyle=1;fillColor=#d5e8d4;fontFamily=Times New Roman;strokeColor=#000000;" parent="1" vertex="1">
                    <mxGeometry x="200" y="1440" width="40" height="40" as="geometry"/>
                </mxCell>
                <mxCell id="513" value="2" style="ellipse;whiteSpace=wrap;html=1;aspect=fixed;fontSize=24;fontStyle=1;fillColor=#d5e8d4;fontFamily=Times New Roman;strokeColor=#000000;" parent="1" vertex="1">
                    <mxGeometry x="280" y="1440" width="40" height="40" as="geometry"/>
                </mxCell>
                <mxCell id="514" value="3" style="ellipse;whiteSpace=wrap;html=1;aspect=fixed;fontSize=24;fontStyle=1;fillColor=#d5e8d4;fontFamily=Times New Roman;strokeColor=#000000;" parent="1" vertex="1">
                    <mxGeometry x="360" y="1440" width="40" height="40" as="geometry"/>
                </mxCell>
                <mxCell id="515" value="4" style="ellipse;whiteSpace=wrap;html=1;aspect=fixed;fontSize=24;fontStyle=1;fillColor=#d5e8d4;fontFamily=Times New Roman;strokeColor=#000000;" parent="1" vertex="1">
                    <mxGeometry x="440" y="1440" width="40" height="40" as="geometry"/>
                </mxCell>
                <mxCell id="516" value="5" style="ellipse;whiteSpace=wrap;html=1;aspect=fixed;fontSize=24;fontStyle=1;fillColor=#d5e8d4;fontFamily=Times New Roman;strokeColor=#000000;" parent="1" vertex="1">
                    <mxGeometry x="520" y="1440" width="40" height="40" as="geometry"/>
                </mxCell>
                <mxCell id="517" value="6" style="ellipse;whiteSpace=wrap;html=1;aspect=fixed;fontSize=24;fontStyle=1;fillColor=#d5e8d4;fontFamily=Times New Roman;strokeColor=#000000;" parent="1" vertex="1">
                    <mxGeometry x="120" y="1360" width="40" height="40" as="geometry"/>
                </mxCell>
                <mxCell id="518" value="7" style="ellipse;whiteSpace=wrap;html=1;aspect=fixed;fontSize=24;fontStyle=1;fillColor=#d5e8d4;fontFamily=Times New Roman;strokeColor=#000000;" parent="1" vertex="1">
                    <mxGeometry x="200" y="1360" width="40" height="40" as="geometry"/>
                </mxCell>
                <mxCell id="519" value="8" style="ellipse;whiteSpace=wrap;html=1;aspect=fixed;fontSize=24;fontStyle=1;fillColor=#d5e8d4;fontFamily=Times New Roman;strokeColor=#000000;" parent="1" vertex="1">
                    <mxGeometry x="280" y="1360" width="40" height="40" as="geometry"/>
                </mxCell>
                <mxCell id="520" value="9" style="ellipse;whiteSpace=wrap;html=1;aspect=fixed;fontSize=24;fontStyle=1;fillColor=#d5e8d4;fontFamily=Times New Roman;strokeColor=#000000;" parent="1" vertex="1">
                    <mxGeometry x="360" y="1360" width="40" height="40" as="geometry"/>
                </mxCell>
                <mxCell id="521" value="0" style="ellipse;whiteSpace=wrap;html=1;aspect=fixed;fontSize=24;fontStyle=1;fillColor=#d5e8d4;fontFamily=Times New Roman;strokeColor=#000000;" parent="1" vertex="1">
                    <mxGeometry x="120" y="1440" width="40" height="40" as="geometry"/>
                </mxCell>
                <mxCell id="522" value="1" style="ellipse;whiteSpace=wrap;html=1;aspect=fixed;fontSize=24;fontStyle=1;fillColor=#f8cecc;fontFamily=Times New Roman;strokeColor=#000000;" parent="1" vertex="1">
                    <mxGeometry x="280" y="1560" width="40" height="40" as="geometry"/>
                </mxCell>
                <mxCell id="523" value="2" style="ellipse;whiteSpace=wrap;html=1;aspect=fixed;fontSize=24;fontStyle=1;fillColor=#f8cecc;fontFamily=Times New Roman;strokeColor=#000000;" parent="1" vertex="1">
                    <mxGeometry x="360" y="1560" width="40" height="40" as="geometry"/>
                </mxCell>
                <mxCell id="524" value="3" style="ellipse;whiteSpace=wrap;html=1;aspect=fixed;fontSize=24;fontStyle=1;fillColor=#f8cecc;fontFamily=Times New Roman;strokeColor=#000000;" parent="1" vertex="1">
                    <mxGeometry x="440" y="1560" width="40" height="40" as="geometry"/>
                </mxCell>
                <mxCell id="525" value="4" style="ellipse;whiteSpace=wrap;html=1;aspect=fixed;fontSize=24;fontStyle=1;fillColor=#f8cecc;fontFamily=Times New Roman;strokeColor=#000000;" parent="1" vertex="1">
                    <mxGeometry x="200" y="1640" width="40" height="40" as="geometry"/>
                </mxCell>
                <mxCell id="526" value="5" style="ellipse;whiteSpace=wrap;html=1;aspect=fixed;fontSize=24;fontStyle=1;fillColor=#f8cecc;fontFamily=Times New Roman;strokeColor=#000000;" parent="1" vertex="1">
                    <mxGeometry x="280" y="1640" width="40" height="40" as="geometry"/>
                </mxCell>
                <mxCell id="527" value="6" style="ellipse;whiteSpace=wrap;html=1;aspect=fixed;fontSize=24;fontStyle=1;fillColor=#f8cecc;fontFamily=Times New Roman;strokeColor=#000000;" parent="1" vertex="1">
                    <mxGeometry x="360" y="1640" width="40" height="40" as="geometry"/>
                </mxCell>
                <mxCell id="528" value="7" style="ellipse;whiteSpace=wrap;html=1;aspect=fixed;fontSize=24;fontStyle=1;fillColor=#f8cecc;fontFamily=Times New Roman;strokeColor=#000000;" parent="1" vertex="1">
                    <mxGeometry x="440" y="1640" width="40" height="40" as="geometry"/>
                </mxCell>
                <mxCell id="529" value="11" style="ellipse;whiteSpace=wrap;html=1;aspect=fixed;fontSize=24;fontStyle=1;fillColor=#d5e8d4;fontFamily=Times New Roman;strokeColor=#000000;" parent="1" vertex="1">
                    <mxGeometry x="520" y="1360" width="40" height="40" as="geometry"/>
                </mxCell>
                <mxCell id="530" value="10" style="ellipse;whiteSpace=wrap;html=1;aspect=fixed;fontSize=24;fontStyle=1;fillColor=#d5e8d4;fontFamily=Times New Roman;strokeColor=#000000;" parent="1" vertex="1">
                    <mxGeometry x="440" y="1360" width="40" height="40" as="geometry"/>
                </mxCell>
                <mxCell id="531" value="0" style="ellipse;whiteSpace=wrap;html=1;aspect=fixed;fontSize=24;fontStyle=1;fillColor=#f8cecc;fontFamily=Times New Roman;strokeColor=#000000;" parent="1" vertex="1">
                    <mxGeometry x="200" y="1560" width="40" height="40" as="geometry"/>
                </mxCell>
                <mxCell id="532" value="1,0" style="rounded=0;whiteSpace=wrap;html=1;strokeColor=#000000;" parent="1" vertex="1">
                    <mxGeometry x="200" y="1480" width="40" height="20" as="geometry"/>
                </mxCell>
                <mxCell id="533" value="0,0" style="rounded=0;whiteSpace=wrap;html=1;strokeColor=#000000;" parent="1" vertex="1">
                    <mxGeometry x="120" y="1480" width="40" height="20" as="geometry"/>
                </mxCell>
                <mxCell id="534" value="3,0" style="rounded=0;whiteSpace=wrap;html=1;strokeColor=#000000;" parent="1" vertex="1">
                    <mxGeometry x="360" y="1480" width="40" height="20" as="geometry"/>
                </mxCell>
                <mxCell id="535" value="2,0" style="rounded=0;whiteSpace=wrap;html=1;strokeColor=#000000;" parent="1" vertex="1">
                    <mxGeometry x="280" y="1480" width="40" height="20" as="geometry"/>
                </mxCell>
                <mxCell id="536" value="5,0" style="rounded=0;whiteSpace=wrap;html=1;strokeColor=#000000;" parent="1" vertex="1">
                    <mxGeometry x="520" y="1480" width="40" height="20" as="geometry"/>
                </mxCell>
                <mxCell id="537" value="4,0" style="rounded=0;whiteSpace=wrap;html=1;strokeColor=#000000;" parent="1" vertex="1">
                    <mxGeometry x="440" y="1480" width="40" height="20" as="geometry"/>
                </mxCell>
                <mxCell id="538" value="1,1" style="rounded=0;whiteSpace=wrap;html=1;strokeColor=#000000;" parent="1" vertex="1">
                    <mxGeometry x="200" y="1400" width="40" height="20" as="geometry"/>
                </mxCell>
                <mxCell id="539" value="0,1" style="rounded=0;whiteSpace=wrap;html=1;strokeColor=#000000;" parent="1" vertex="1">
                    <mxGeometry x="120" y="1400" width="40" height="20" as="geometry"/>
                </mxCell>
                <mxCell id="540" value="3,1" style="rounded=0;whiteSpace=wrap;html=1;strokeColor=#000000;" parent="1" vertex="1">
                    <mxGeometry x="360" y="1400" width="40" height="20" as="geometry"/>
                </mxCell>
                <mxCell id="541" value="2,1" style="rounded=0;whiteSpace=wrap;html=1;strokeColor=#000000;" parent="1" vertex="1">
                    <mxGeometry x="280" y="1400" width="40" height="20" as="geometry"/>
                </mxCell>
                <mxCell id="542" value="5,0" style="rounded=0;whiteSpace=wrap;html=1;strokeColor=#000000;" parent="1" vertex="1">
                    <mxGeometry x="520" y="1400" width="40" height="20" as="geometry"/>
                </mxCell>
                <mxCell id="543" value="4,1" style="rounded=0;whiteSpace=wrap;html=1;strokeColor=#000000;" parent="1" vertex="1">
                    <mxGeometry x="440" y="1400" width="40" height="20" as="geometry"/>
                </mxCell>
                <mxCell id="544" value="1,0" style="rounded=0;whiteSpace=wrap;html=1;strokeColor=#000000;" parent="1" vertex="1">
                    <mxGeometry x="280" y="1600" width="40" height="20" as="geometry"/>
                </mxCell>
                <mxCell id="545" value="0,0" style="rounded=0;whiteSpace=wrap;html=1;strokeColor=#000000;" parent="1" vertex="1">
                    <mxGeometry x="200" y="1600" width="40" height="20" as="geometry"/>
                </mxCell>
                <mxCell id="546" value="3,0" style="rounded=0;whiteSpace=wrap;html=1;strokeColor=#000000;" parent="1" vertex="1">
                    <mxGeometry x="440" y="1600" width="40" height="20" as="geometry"/>
                </mxCell>
                <mxCell id="547" value="2,0" style="rounded=0;whiteSpace=wrap;html=1;strokeColor=#000000;" parent="1" vertex="1">
                    <mxGeometry x="360" y="1600" width="40" height="20" as="geometry"/>
                </mxCell>
                <mxCell id="548" value="1,1" style="rounded=0;whiteSpace=wrap;html=1;strokeColor=#000000;" parent="1" vertex="1">
                    <mxGeometry x="280" y="1680" width="40" height="20" as="geometry"/>
                </mxCell>
                <mxCell id="549" value="0,1" style="rounded=0;whiteSpace=wrap;html=1;strokeColor=#000000;" parent="1" vertex="1">
                    <mxGeometry x="200" y="1680" width="40" height="20" as="geometry"/>
                </mxCell>
                <mxCell id="550" value="3,1" style="rounded=0;whiteSpace=wrap;html=1;strokeColor=#000000;" parent="1" vertex="1">
                    <mxGeometry x="440" y="1680" width="40" height="20" as="geometry"/>
                </mxCell>
                <mxCell id="551" value="2,1" style="rounded=0;whiteSpace=wrap;html=1;strokeColor=#000000;" parent="1" vertex="1">
                    <mxGeometry x="360" y="1680" width="40" height="20" as="geometry"/>
                </mxCell>
                <mxCell id="552" value="6" style="ellipse;whiteSpace=wrap;html=1;aspect=fixed;fontSize=24;fontStyle=1;fillColor=#d5e8d4;fontFamily=Times New Roman;strokeColor=#000000;" parent="1" vertex="1">
                    <mxGeometry x="600" y="1440" width="40" height="40" as="geometry"/>
                </mxCell>
                <mxCell id="553" value="7" style="ellipse;whiteSpace=wrap;html=1;aspect=fixed;fontSize=24;fontStyle=1;fillColor=#d5e8d4;fontFamily=Times New Roman;strokeColor=#000000;" parent="1" vertex="1">
                    <mxGeometry x="680" y="1440" width="40" height="40" as="geometry"/>
                </mxCell>
                <mxCell id="554" value="8" style="ellipse;whiteSpace=wrap;html=1;aspect=fixed;fontSize=24;fontStyle=1;fillColor=#d5e8d4;fontFamily=Times New Roman;strokeColor=#000000;" parent="1" vertex="1">
                    <mxGeometry x="760" y="1440" width="40" height="40" as="geometry"/>
                </mxCell>
                <mxCell id="555" value="6,0" style="rounded=0;whiteSpace=wrap;html=1;strokeColor=#000000;" parent="1" vertex="1">
                    <mxGeometry x="600" y="1480" width="40" height="20" as="geometry"/>
                </mxCell>
                <mxCell id="556" value="8,0" style="rounded=0;whiteSpace=wrap;html=1;strokeColor=#000000;" parent="1" vertex="1">
                    <mxGeometry x="760" y="1480" width="40" height="20" as="geometry"/>
                </mxCell>
                <mxCell id="557" value="7,0" style="rounded=0;whiteSpace=wrap;html=1;strokeColor=#000000;" parent="1" vertex="1">
                    <mxGeometry x="680" y="1480" width="40" height="20" as="geometry"/>
                </mxCell>
                <mxCell id="266" value="target" style="" parent="0"/>
                <mxCell id="267" value="End" style="verticalLabelPosition=bottom;verticalAlign=top;html=1;shape=mxgraph.basic.donut;dx=4.08;fontSize=16;fillColor=#e51400;strokeColor=#000000;fontStyle=1;fontColor=#ffffff;" parent="266" vertex="1">
                    <mxGeometry x="1199" y="878" width="43" height="44" as="geometry"/>
                </mxCell>
                <mxCell id="271" value="tokens" parent="0"/>
                <mxCell id="272" value="" style="shape=mxgraph.mockup.markup.redX;fillColor=#ff0000;html=1;shadow=0;strokeColor=none;fontFamily=Times New Roman;fontSize=14;" parent="271" vertex="1">
                    <mxGeometry x="1210" y="830" width="20" height="20" as="geometry"/>
                </mxCell>
                <mxCell id="274" style="edgeStyle=none;rounded=0;html=1;fontFamily=Times New Roman;fontSize=14;" parent="271" source="219" target="230" edge="1">
                    <mxGeometry relative="1" as="geometry">
                        <Array as="points">
                            <mxPoint x="1220" y="860"/>
                            <mxPoint x="1140" y="860"/>
                        </Array>
                    </mxGeometry>
                </mxCell>
                <mxCell id="275" value="" style="verticalLabelPosition=bottom;verticalAlign=top;html=1;shape=mxgraph.basic.tick;fontFamily=Times New Roman;fontSize=14;strokeColor=#000000;fillColor=#cdeb8b;strokeWidth=0.5;" parent="271" vertex="1">
                    <mxGeometry x="1135" y="828" width="15" height="15" as="geometry"/>
                </mxCell>
                <mxCell id="276" value="" style="verticalLabelPosition=bottom;verticalAlign=top;html=1;shape=mxgraph.basic.x;fontSize=24;fillColor=#f8cecc;strokeColor=#b85450;" parent="271" vertex="1">
                    <mxGeometry x="1640" y="800" width="40" height="40" as="geometry"/>
                </mxCell>
                <mxCell id="277" value="" style="verticalLabelPosition=bottom;verticalAlign=top;html=1;shape=mxgraph.basic.x;fontSize=24;fillColor=#f8cecc;strokeColor=#b85450;" parent="271" vertex="1">
                    <mxGeometry x="1720" y="880" width="40" height="40" as="geometry"/>
                </mxCell>
                <mxCell id="278" value="" style="verticalLabelPosition=bottom;verticalAlign=top;html=1;shape=mxgraph.basic.x;fontSize=24;fillColor=#f8cecc;strokeColor=#b85450;" parent="271" vertex="1">
                    <mxGeometry x="1840" y="800" width="40" height="40" as="geometry"/>
                </mxCell>
                <mxCell id="279" value="" style="group;fontFamily=Times New Roman;fillColor=none;fontStyle=1;fontSize=14;" parent="271" vertex="1" connectable="0">
                    <mxGeometry x="1560" y="880" width="40" height="40" as="geometry"/>
                </mxCell>
                <mxCell id="280" value="0" style="shape=or;whiteSpace=wrap;html=1;direction=south;fontFamily=Times New Roman;fillColor=none;fontStyle=1;fontSize=14;" parent="279" vertex="1">
                    <mxGeometry y="20" width="40" height="20" as="geometry"/>
                </mxCell>
                <mxCell id="281" value="0" style="shape=or;whiteSpace=wrap;html=1;direction=south;flipV=1;fontFamily=Times New Roman;fillColor=none;fontStyle=1;fontSize=14;" parent="279" vertex="1">
                    <mxGeometry width="40" height="20" as="geometry"/>
                </mxCell>
                <mxCell id="285" value="" style="group;fontFamily=Times New Roman;fillColor=none;fontStyle=1;fontSize=14;" parent="271" vertex="1" connectable="0">
                    <mxGeometry x="1720" y="880" width="40" height="40" as="geometry"/>
                </mxCell>
                <mxCell id="286" value="2" style="shape=or;whiteSpace=wrap;html=1;direction=south;fontFamily=Times New Roman;fillColor=none;fontStyle=1;fontSize=14;" parent="285" vertex="1">
                    <mxGeometry y="20" width="40" height="20" as="geometry"/>
                </mxCell>
                <mxCell id="287" value="2" style="shape=or;whiteSpace=wrap;html=1;direction=south;flipV=1;fontFamily=Times New Roman;fillColor=none;fontStyle=1;fontSize=14;" parent="285" vertex="1">
                    <mxGeometry width="40" height="20" as="geometry"/>
                </mxCell>
                <mxCell id="288" value="" style="group;fontFamily=Times New Roman;fillColor=none;fontStyle=1;fontSize=14;" parent="271" vertex="1" connectable="0">
                    <mxGeometry x="1560" y="800" width="40" height="40" as="geometry"/>
                </mxCell>
                <mxCell id="289" value="5" style="shape=or;whiteSpace=wrap;html=1;direction=south;fontFamily=Times New Roman;fillColor=none;fontStyle=1;fontSize=14;" parent="288" vertex="1">
                    <mxGeometry y="20" width="40" height="20" as="geometry"/>
                </mxCell>
                <mxCell id="290" value="1" style="shape=or;whiteSpace=wrap;html=1;direction=south;flipV=1;fontFamily=Times New Roman;fillColor=none;fontStyle=1;fontSize=14;" parent="288" vertex="1">
                    <mxGeometry width="40" height="20" as="geometry"/>
                </mxCell>
                <mxCell id="291" value="" style="group;fontFamily=Times New Roman;fillColor=none;fontStyle=1;fontSize=14;" parent="271" vertex="1" connectable="0">
                    <mxGeometry x="1640" y="800" width="40" height="40" as="geometry"/>
                </mxCell>
                <mxCell id="292" value="6" style="shape=or;whiteSpace=wrap;html=1;direction=south;fontFamily=Times New Roman;fillColor=none;fontStyle=1;fontSize=14;" parent="291" vertex="1">
                    <mxGeometry y="20" width="40" height="20" as="geometry"/>
                </mxCell>
                <mxCell id="293" value="6" style="shape=or;whiteSpace=wrap;html=1;direction=south;flipV=1;fontFamily=Times New Roman;fillColor=none;fontStyle=1;fontSize=14;" parent="291" vertex="1">
                    <mxGeometry width="40" height="20" as="geometry"/>
                </mxCell>
                <mxCell id="297" style="edgeStyle=none;rounded=0;html=1;fontFamily=Times New Roman;fontSize=14;" parent="271" source="284" target="292" edge="1">
                    <mxGeometry relative="1" as="geometry"/>
                </mxCell>
                <mxCell id="282" value="" style="group;fontFamily=Times New Roman;fillColor=none;fontStyle=1;fontSize=14;" parent="271" vertex="1" connectable="0">
                    <mxGeometry x="1640" y="880" width="41.5" height="42" as="geometry"/>
                </mxCell>
                <mxCell id="283" value="1" style="shape=or;whiteSpace=wrap;html=1;direction=south;fontFamily=Times New Roman;fillColor=none;fontStyle=1;fontSize=14;" parent="282" vertex="1">
                    <mxGeometry y="20" width="40" height="20" as="geometry"/>
                </mxCell>
                <mxCell id="284" value="5" style="shape=or;whiteSpace=wrap;html=1;direction=south;flipV=1;fontFamily=Times New Roman;fillColor=none;fontStyle=1;fontSize=14;" parent="282" vertex="1">
                    <mxGeometry width="40" height="20" as="geometry"/>
                </mxCell>
                <mxCell id="298" value="End" style="verticalLabelPosition=bottom;verticalAlign=top;html=1;shape=mxgraph.basic.donut;dx=4.08;fontSize=16;fillColor=#e51400;strokeColor=#000000;fontStyle=1;fontColor=#ffffff;" parent="282" vertex="1">
                    <mxGeometry x="-1.5" y="-2" width="43" height="44" as="geometry"/>
                </mxCell>
                <mxCell id="294" value="" style="group;fontFamily=Times New Roman;fillColor=none;fontStyle=1;fontSize=14;" parent="271" vertex="1" connectable="0">
                    <mxGeometry x="1720" y="800" width="40" height="40" as="geometry"/>
                </mxCell>
                <mxCell id="295" value="7" style="shape=or;whiteSpace=wrap;html=1;direction=south;fontFamily=Times New Roman;fillColor=none;fontStyle=1;fontSize=14;" parent="294" vertex="1">
                    <mxGeometry y="20" width="40" height="20" as="geometry"/>
                </mxCell>
                <mxCell id="296" value="7" style="shape=or;whiteSpace=wrap;html=1;direction=south;flipV=1;fontFamily=Times New Roman;fillColor=none;fontStyle=1;fontSize=14;" parent="294" vertex="1">
                    <mxGeometry width="40" height="20" as="geometry"/>
                </mxCell>
                <mxCell id="299" value="" style="shape=mxgraph.mockup.markup.redX;fillColor=#ff0000;html=1;shadow=0;strokeColor=none;fontFamily=Times New Roman;fontSize=14;" parent="271" vertex="1">
                    <mxGeometry x="1650" y="830" width="20" height="20" as="geometry"/>
                </mxCell>
                <mxCell id="303" style="edgeStyle=none;rounded=0;html=1;fontFamily=Times New Roman;fontSize=14;startArrow=classic;startFill=1;" parent="271" source="289" target="284" edge="1">
                    <mxGeometry relative="1" as="geometry"/>
                </mxCell>
                <mxCell id="308" value="" style="verticalLabelPosition=bottom;verticalAlign=top;html=1;shape=mxgraph.basic.donut;dx=4.08;fontSize=16;fillColor=none;fontStyle=1;strokeWidth=0.5;" parent="271" vertex="1">
                    <mxGeometry x="1607" y="946" width="43" height="44" as="geometry"/>
                </mxCell>
                <mxCell id="310" value="" style="verticalLabelPosition=bottom;verticalAlign=top;html=1;shape=mxgraph.basic.x;fontSize=24;fillColor=#f8cecc;strokeColor=#b85450;" parent="271" vertex="1">
                    <mxGeometry x="1920" y="800" width="40" height="40" as="geometry"/>
                </mxCell>
                <mxCell id="311" value="" style="verticalLabelPosition=bottom;verticalAlign=top;html=1;shape=mxgraph.basic.x;fontSize=24;fillColor=#f8cecc;strokeColor=#b85450;" parent="271" vertex="1">
                    <mxGeometry x="2160" y="800" width="40" height="40" as="geometry"/>
                </mxCell>
                <mxCell id="312" value="" style="verticalLabelPosition=bottom;verticalAlign=top;html=1;shape=mxgraph.basic.x;fontSize=24;fillColor=#f8cecc;strokeColor=#b85450;" parent="271" vertex="1">
                    <mxGeometry x="2080" y="880" width="40" height="40" as="geometry"/>
                </mxCell>
                <mxCell id="313" value="" style="verticalLabelPosition=bottom;verticalAlign=top;html=1;shape=mxgraph.basic.x;fontSize=24;fillColor=#f8cecc;strokeColor=#b85450;" parent="271" vertex="1">
                    <mxGeometry x="2000" y="880" width="40" height="40" as="geometry"/>
                </mxCell>
                <mxCell id="314" value="" style="verticalLabelPosition=bottom;verticalAlign=top;html=1;shape=mxgraph.basic.x;fontSize=24;fillColor=#f8cecc;strokeColor=#b85450;" parent="271" vertex="1">
                    <mxGeometry x="1920" y="880" width="40" height="40" as="geometry"/>
                </mxCell>
                <mxCell id="315" value="" style="group;fontFamily=Times New Roman;fillColor=none;fontStyle=1;fontSize=14;" parent="271" vertex="1" connectable="0">
                    <mxGeometry x="1840" y="880" width="40" height="40" as="geometry"/>
                </mxCell>
                <mxCell id="316" value="0" style="shape=or;whiteSpace=wrap;html=1;direction=south;fontFamily=Times New Roman;fillColor=none;fontStyle=1;fontSize=14;" parent="315" vertex="1">
                    <mxGeometry y="20" width="40" height="20" as="geometry"/>
                </mxCell>
                <mxCell id="317" value="0" style="shape=or;whiteSpace=wrap;html=1;direction=south;flipV=1;fontFamily=Times New Roman;fillColor=none;fontStyle=1;fontSize=14;" parent="315" vertex="1">
                    <mxGeometry width="40" height="20" as="geometry"/>
                </mxCell>
                <mxCell id="318" value="" style="group;fontFamily=Times New Roman;fillColor=none;fontStyle=1;fontSize=14;" parent="271" vertex="1" connectable="0">
                    <mxGeometry x="1920" y="880" width="40" height="40" as="geometry"/>
                </mxCell>
                <mxCell id="319" value="1" style="shape=or;whiteSpace=wrap;html=1;direction=south;fontFamily=Times New Roman;fillColor=none;fontStyle=1;fontSize=14;" parent="318" vertex="1">
                    <mxGeometry y="20" width="40" height="20" as="geometry"/>
                </mxCell>
                <mxCell id="320" value="1" style="shape=or;whiteSpace=wrap;html=1;direction=south;flipV=1;fontFamily=Times New Roman;fillColor=none;fontStyle=1;fontSize=14;" parent="318" vertex="1">
                    <mxGeometry width="40" height="20" as="geometry"/>
                </mxCell>
                <mxCell id="321" value="" style="group;fontFamily=Times New Roman;fillColor=none;fontStyle=1;fontSize=14;" parent="271" vertex="1" connectable="0">
                    <mxGeometry x="2000" y="880" width="40" height="40" as="geometry"/>
                </mxCell>
                <mxCell id="322" value="2" style="shape=or;whiteSpace=wrap;html=1;direction=south;fontFamily=Times New Roman;fillColor=none;fontStyle=1;fontSize=14;" parent="321" vertex="1">
                    <mxGeometry y="20" width="40" height="20" as="geometry"/>
                </mxCell>
                <mxCell id="323" value="2" style="shape=or;whiteSpace=wrap;html=1;direction=south;flipV=1;fontFamily=Times New Roman;fillColor=none;fontStyle=1;fontSize=14;" parent="321" vertex="1">
                    <mxGeometry width="40" height="20" as="geometry"/>
                </mxCell>
                <mxCell id="324" value="" style="group;fontFamily=Times New Roman;fillColor=none;fontStyle=1;fontSize=14;" parent="271" vertex="1" connectable="0">
                    <mxGeometry x="2080" y="880" width="40" height="40" as="geometry"/>
                </mxCell>
                <mxCell id="325" value="3" style="shape=or;whiteSpace=wrap;html=1;direction=south;fontFamily=Times New Roman;fillColor=none;fontStyle=1;fontSize=14;" parent="324" vertex="1">
                    <mxGeometry y="20" width="40" height="20" as="geometry"/>
                </mxCell>
                <mxCell id="326" value="3" style="shape=or;whiteSpace=wrap;html=1;direction=south;flipV=1;fontFamily=Times New Roman;fillColor=none;fontStyle=1;fontSize=14;" parent="324" vertex="1">
                    <mxGeometry width="40" height="20" as="geometry"/>
                </mxCell>
                <mxCell id="327" value="" style="group;fontFamily=Times New Roman;fillColor=none;fontStyle=1;fontSize=14;" parent="271" vertex="1" connectable="0">
                    <mxGeometry x="2160" y="880" width="40" height="40" as="geometry"/>
                </mxCell>
                <mxCell id="328" value="4" style="shape=or;whiteSpace=wrap;html=1;direction=south;fontFamily=Times New Roman;fillColor=none;fontStyle=1;fontSize=14;" parent="327" vertex="1">
                    <mxGeometry y="20" width="40" height="20" as="geometry"/>
                </mxCell>
                <mxCell id="329" value="4" style="shape=or;whiteSpace=wrap;html=1;direction=south;flipV=1;fontFamily=Times New Roman;fillColor=none;fontStyle=1;fontSize=14;" parent="327" vertex="1">
                    <mxGeometry width="40" height="20" as="geometry"/>
                </mxCell>
                <mxCell id="330" value="" style="group;fontFamily=Times New Roman;fillColor=none;fontStyle=1;fontSize=14;" parent="271" vertex="1" connectable="0">
                    <mxGeometry x="1840" y="800" width="40" height="40" as="geometry"/>
                </mxCell>
                <mxCell id="331" value="5" style="shape=or;whiteSpace=wrap;html=1;direction=south;fontFamily=Times New Roman;fillColor=none;fontStyle=1;fontSize=14;" parent="330" vertex="1">
                    <mxGeometry y="20" width="40" height="20" as="geometry"/>
                </mxCell>
                <mxCell id="332" value="5" style="shape=or;whiteSpace=wrap;html=1;direction=south;flipV=1;fontFamily=Times New Roman;fillColor=none;fontStyle=1;fontSize=14;" parent="330" vertex="1">
                    <mxGeometry width="40" height="20" as="geometry"/>
                </mxCell>
                <mxCell id="333" value="" style="group;fontFamily=Times New Roman;fillColor=none;fontStyle=1;fontSize=14;" parent="271" vertex="1" connectable="0">
                    <mxGeometry x="1920" y="800" width="40" height="40" as="geometry"/>
                </mxCell>
                <mxCell id="334" value="6" style="shape=or;whiteSpace=wrap;html=1;direction=south;fontFamily=Times New Roman;fillColor=none;fontStyle=1;fontSize=14;" parent="333" vertex="1">
                    <mxGeometry y="20" width="40" height="20" as="geometry"/>
                </mxCell>
                <mxCell id="335" value="6" style="shape=or;whiteSpace=wrap;html=1;direction=south;flipV=1;fontFamily=Times New Roman;fillColor=none;fontStyle=1;fontSize=14;" parent="333" vertex="1">
                    <mxGeometry width="40" height="20" as="geometry"/>
                </mxCell>
                <mxCell id="336" value="" style="group;fontFamily=Times New Roman;fillColor=none;fontStyle=1;fontSize=14;" parent="271" vertex="1" connectable="0">
                    <mxGeometry x="2000" y="800" width="40" height="40" as="geometry"/>
                </mxCell>
                <mxCell id="337" value="7" style="shape=or;whiteSpace=wrap;html=1;direction=south;fontFamily=Times New Roman;fillColor=none;fontStyle=1;fontSize=14;" parent="336" vertex="1">
                    <mxGeometry y="20" width="40" height="20" as="geometry"/>
                </mxCell>
                <mxCell id="338" value="7" style="shape=or;whiteSpace=wrap;html=1;direction=south;flipV=1;fontFamily=Times New Roman;fillColor=none;fontStyle=1;fontSize=14;" parent="336" vertex="1">
                    <mxGeometry width="40" height="20" as="geometry"/>
                </mxCell>
                <mxCell id="339" value="" style="group;fontFamily=Times New Roman;fillColor=none;fontStyle=1;fontSize=14;" parent="271" vertex="1" connectable="0">
                    <mxGeometry x="2080" y="800" width="40" height="40" as="geometry"/>
                </mxCell>
                <mxCell id="340" value="8" style="shape=or;whiteSpace=wrap;html=1;direction=south;fontFamily=Times New Roman;fillColor=none;fontStyle=1;fontSize=14;" parent="339" vertex="1">
                    <mxGeometry y="20" width="40" height="20" as="geometry"/>
                </mxCell>
                <mxCell id="341" value="8" style="shape=or;whiteSpace=wrap;html=1;direction=south;flipV=1;fontFamily=Times New Roman;fillColor=none;fontStyle=1;fontSize=14;" parent="339" vertex="1">
                    <mxGeometry width="40" height="20" as="geometry"/>
                </mxCell>
                <mxCell id="342" value="" style="group;fontFamily=Times New Roman;fillColor=none;fontStyle=1;fontSize=14;" parent="271" vertex="1" connectable="0">
                    <mxGeometry x="2160" y="800" width="40" height="40" as="geometry"/>
                </mxCell>
                <mxCell id="343" value="9" style="shape=or;whiteSpace=wrap;html=1;direction=south;fontFamily=Times New Roman;fillColor=none;fontStyle=1;fontSize=14;" parent="342" vertex="1">
                    <mxGeometry y="20" width="40" height="20" as="geometry"/>
                </mxCell>
                <mxCell id="344" value="9" style="shape=or;whiteSpace=wrap;html=1;direction=south;flipV=1;fontFamily=Times New Roman;fillColor=none;fontStyle=1;fontSize=14;" parent="342" vertex="1">
                    <mxGeometry width="40" height="20" as="geometry"/>
                </mxCell>
                <mxCell id="346" value="End" style="verticalLabelPosition=bottom;verticalAlign=top;html=1;shape=mxgraph.basic.donut;dx=4.08;fontSize=16;fillColor=#e51400;strokeColor=#000000;fontStyle=1;fontColor=#ffffff;" parent="271" vertex="1">
                    <mxGeometry x="1919" y="878" width="43" height="44" as="geometry"/>
                </mxCell>
                <mxCell id="353" value="" style="verticalLabelPosition=bottom;verticalAlign=top;html=1;shape=mxgraph.basic.x;fontSize=24;fillColor=#f8cecc;strokeColor=#b85450;" parent="271" vertex="1">
                    <mxGeometry x="1200" y="1120" width="40" height="40" as="geometry"/>
                </mxCell>
                <mxCell id="354" value="" style="verticalLabelPosition=bottom;verticalAlign=top;html=1;shape=mxgraph.basic.x;fontSize=24;fillColor=#f8cecc;strokeColor=#b85450;" parent="271" vertex="1">
                    <mxGeometry x="1360" y="1200" width="40" height="40" as="geometry"/>
                </mxCell>
                <mxCell id="355" value="" style="verticalLabelPosition=bottom;verticalAlign=top;html=1;shape=mxgraph.basic.x;fontSize=24;fillColor=#f8cecc;strokeColor=#b85450;" parent="271" vertex="1">
                    <mxGeometry x="1280" y="1200" width="40" height="40" as="geometry"/>
                </mxCell>
                <mxCell id="356" value="" style="verticalLabelPosition=bottom;verticalAlign=top;html=1;shape=mxgraph.basic.x;fontSize=24;fillColor=#f8cecc;strokeColor=#b85450;" parent="271" vertex="1">
                    <mxGeometry x="1200" y="1200" width="40" height="40" as="geometry"/>
                </mxCell>
                <mxCell id="357" value="" style="group;fontFamily=Times New Roman;fillColor=none;fontStyle=1;fontSize=14;" parent="271" vertex="1" connectable="0">
                    <mxGeometry x="1120" y="1200" width="40" height="40" as="geometry"/>
                </mxCell>
                <mxCell id="358" value="0" style="shape=or;whiteSpace=wrap;html=1;direction=south;fontFamily=Times New Roman;fillColor=none;fontStyle=1;fontSize=14;" parent="357" vertex="1">
                    <mxGeometry y="20" width="40" height="20" as="geometry"/>
                </mxCell>
                <mxCell id="359" value="0" style="shape=or;whiteSpace=wrap;html=1;direction=south;flipV=1;fontFamily=Times New Roman;fillColor=none;fontStyle=1;fontSize=14;" parent="357" vertex="1">
                    <mxGeometry width="40" height="20" as="geometry"/>
                </mxCell>
                <mxCell id="360" value="" style="group;fontFamily=Times New Roman;fillColor=none;fontStyle=1;fontSize=14;" parent="271" vertex="1" connectable="0">
                    <mxGeometry x="1200" y="1200" width="40" height="40" as="geometry"/>
                </mxCell>
                <mxCell id="361" value="1" style="shape=or;whiteSpace=wrap;html=1;direction=south;fontFamily=Times New Roman;fillColor=none;fontStyle=1;fontSize=14;" parent="360" vertex="1">
                    <mxGeometry y="20" width="40" height="20" as="geometry"/>
                </mxCell>
                <mxCell id="362" value="1" style="shape=or;whiteSpace=wrap;html=1;direction=south;flipV=1;fontFamily=Times New Roman;fillColor=none;fontStyle=1;fontSize=14;" parent="360" vertex="1">
                    <mxGeometry width="40" height="20" as="geometry"/>
                </mxCell>
                <mxCell id="363" value="" style="group;fontFamily=Times New Roman;fillColor=none;fontStyle=1;fontSize=14;" parent="271" vertex="1" connectable="0">
                    <mxGeometry x="1280" y="1200" width="40" height="40" as="geometry"/>
                </mxCell>
                <mxCell id="364" value="2" style="shape=or;whiteSpace=wrap;html=1;direction=south;fontFamily=Times New Roman;fillColor=none;fontStyle=1;fontSize=14;" parent="363" vertex="1">
                    <mxGeometry y="20" width="40" height="20" as="geometry"/>
                </mxCell>
                <mxCell id="365" value="2" style="shape=or;whiteSpace=wrap;html=1;direction=south;flipV=1;fontFamily=Times New Roman;fillColor=none;fontStyle=1;fontSize=14;" parent="363" vertex="1">
                    <mxGeometry width="40" height="20" as="geometry"/>
                </mxCell>
                <mxCell id="366" value="" style="group;fontFamily=Times New Roman;fillColor=none;fontStyle=1;fontSize=14;" parent="271" vertex="1" connectable="0">
                    <mxGeometry x="1360" y="1200" width="40" height="40" as="geometry"/>
                </mxCell>
                <mxCell id="367" value="3" style="shape=or;whiteSpace=wrap;html=1;direction=south;fontFamily=Times New Roman;fillColor=none;fontStyle=1;fontSize=14;" parent="366" vertex="1">
                    <mxGeometry y="20" width="40" height="20" as="geometry"/>
                </mxCell>
                <mxCell id="368" value="3" style="shape=or;whiteSpace=wrap;html=1;direction=south;flipV=1;fontFamily=Times New Roman;fillColor=none;fontStyle=1;fontSize=14;" parent="366" vertex="1">
                    <mxGeometry width="40" height="20" as="geometry"/>
                </mxCell>
                <mxCell id="369" value="" style="group;fontFamily=Times New Roman;fillColor=none;fontStyle=1;fontSize=14;" parent="271" vertex="1" connectable="0">
                    <mxGeometry x="1120" y="1120" width="40" height="40" as="geometry"/>
                </mxCell>
                <mxCell id="370" value="5" style="shape=or;whiteSpace=wrap;html=1;direction=south;fontFamily=Times New Roman;fillColor=none;fontStyle=1;fontSize=14;" parent="369" vertex="1">
                    <mxGeometry y="20" width="40" height="20" as="geometry"/>
                </mxCell>
                <mxCell id="371" value="5" style="shape=or;whiteSpace=wrap;html=1;direction=south;flipV=1;fontFamily=Times New Roman;fillColor=none;fontStyle=1;fontSize=14;" parent="369" vertex="1">
                    <mxGeometry width="40" height="20" as="geometry"/>
                </mxCell>
                <mxCell id="372" value="" style="group;fontFamily=Times New Roman;fillColor=none;fontStyle=1;fontSize=14;" parent="271" vertex="1" connectable="0">
                    <mxGeometry x="1200" y="1120" width="40" height="40" as="geometry"/>
                </mxCell>
                <mxCell id="373" value="6" style="shape=or;whiteSpace=wrap;html=1;direction=south;fontFamily=Times New Roman;fillColor=none;fontStyle=1;fontSize=14;" parent="372" vertex="1">
                    <mxGeometry y="20" width="40" height="20" as="geometry"/>
                </mxCell>
                <mxCell id="374" value="6" style="shape=or;whiteSpace=wrap;html=1;direction=south;flipV=1;fontFamily=Times New Roman;fillColor=none;fontStyle=1;fontSize=14;" parent="372" vertex="1">
                    <mxGeometry width="40" height="20" as="geometry"/>
                </mxCell>
                <mxCell id="375" value="" style="group;fontFamily=Times New Roman;fillColor=none;fontStyle=1;fontSize=14;" parent="271" vertex="1" connectable="0">
                    <mxGeometry x="1280" y="1120" width="40" height="40" as="geometry"/>
                </mxCell>
                <mxCell id="376" value="7" style="shape=or;whiteSpace=wrap;html=1;direction=south;fontFamily=Times New Roman;fillColor=none;fontStyle=1;fontSize=14;" parent="375" vertex="1">
                    <mxGeometry y="20" width="40" height="20" as="geometry"/>
                </mxCell>
                <mxCell id="377" value="7" style="shape=or;whiteSpace=wrap;html=1;direction=south;flipV=1;fontFamily=Times New Roman;fillColor=none;fontStyle=1;fontSize=14;" parent="375" vertex="1">
                    <mxGeometry width="40" height="20" as="geometry"/>
                </mxCell>
                <mxCell id="378" value="" style="group;fontFamily=Times New Roman;fillColor=none;fontStyle=1;fontSize=14;" parent="271" vertex="1" connectable="0">
                    <mxGeometry x="1360" y="1120" width="40" height="40" as="geometry"/>
                </mxCell>
                <mxCell id="379" value="8" style="shape=or;whiteSpace=wrap;html=1;direction=south;fontFamily=Times New Roman;fillColor=none;fontStyle=1;fontSize=14;" parent="378" vertex="1">
                    <mxGeometry y="20" width="40" height="20" as="geometry"/>
                </mxCell>
                <mxCell id="380" value="8" style="shape=or;whiteSpace=wrap;html=1;direction=south;flipV=1;fontFamily=Times New Roman;fillColor=none;fontStyle=1;fontSize=14;" parent="378" vertex="1">
                    <mxGeometry width="40" height="20" as="geometry"/>
                </mxCell>
                <mxCell id="381" value="" style="group;fontFamily=Times New Roman;fillColor=none;fontStyle=1;fontSize=14;" parent="271" vertex="1" connectable="0">
                    <mxGeometry x="1120" y="1040" width="40" height="40" as="geometry"/>
                </mxCell>
                <mxCell id="382" value="10" style="shape=or;whiteSpace=wrap;html=1;direction=south;fontFamily=Times New Roman;fillColor=none;fontStyle=1;fontSize=14;" parent="381" vertex="1">
                    <mxGeometry y="20" width="40" height="20" as="geometry"/>
                </mxCell>
                <mxCell id="383" value="10" style="shape=or;whiteSpace=wrap;html=1;direction=south;flipV=1;fontFamily=Times New Roman;fillColor=none;fontStyle=1;fontSize=14;" parent="381" vertex="1">
                    <mxGeometry width="40" height="20" as="geometry"/>
                </mxCell>
                <mxCell id="384" value="" style="group;fontFamily=Times New Roman;fillColor=none;fontStyle=1;fontSize=14;" parent="271" vertex="1" connectable="0">
                    <mxGeometry x="1200" y="1040" width="40" height="40" as="geometry"/>
                </mxCell>
                <mxCell id="385" value="11" style="shape=or;whiteSpace=wrap;html=1;direction=south;fontFamily=Times New Roman;fillColor=none;fontStyle=1;fontSize=14;" parent="384" vertex="1">
                    <mxGeometry y="20" width="40" height="20" as="geometry"/>
                </mxCell>
                <mxCell id="386" value="11" style="shape=or;whiteSpace=wrap;html=1;direction=south;flipV=1;fontFamily=Times New Roman;fillColor=none;fontStyle=1;fontSize=14;" parent="384" vertex="1">
                    <mxGeometry width="40" height="20" as="geometry"/>
                </mxCell>
                <mxCell id="387" value="" style="group;fontFamily=Times New Roman;fillColor=none;fontStyle=1;fontSize=14;" parent="271" vertex="1" connectable="0">
                    <mxGeometry x="1280" y="1040" width="40" height="40" as="geometry"/>
                </mxCell>
                <mxCell id="388" value="12" style="shape=or;whiteSpace=wrap;html=1;direction=south;fontFamily=Times New Roman;fillColor=none;fontStyle=1;fontSize=14;" parent="387" vertex="1">
                    <mxGeometry y="20" width="40" height="20" as="geometry"/>
                </mxCell>
                <mxCell id="389" value="12" style="shape=or;whiteSpace=wrap;html=1;direction=south;flipV=1;fontFamily=Times New Roman;fillColor=none;fontStyle=1;fontSize=14;" parent="387" vertex="1">
                    <mxGeometry width="40" height="20" as="geometry"/>
                </mxCell>
                <mxCell id="390" value="" style="group;fontFamily=Times New Roman;fillColor=none;fontStyle=1;fontSize=14;" parent="271" vertex="1" connectable="0">
                    <mxGeometry x="1360" y="1040" width="40" height="40" as="geometry"/>
                </mxCell>
                <mxCell id="391" value="13" style="shape=or;whiteSpace=wrap;html=1;direction=south;fontFamily=Times New Roman;fillColor=none;fontStyle=1;fontSize=14;" parent="390" vertex="1">
                    <mxGeometry y="20" width="40" height="20" as="geometry"/>
                </mxCell>
                <mxCell id="392" value="13" style="shape=or;whiteSpace=wrap;html=1;direction=south;flipV=1;fontFamily=Times New Roman;fillColor=none;fontStyle=1;fontSize=14;" parent="390" vertex="1">
                    <mxGeometry width="40" height="20" as="geometry"/>
                </mxCell>
                <mxCell id="394" value="End" style="verticalLabelPosition=bottom;verticalAlign=top;html=1;shape=mxgraph.basic.donut;dx=4.08;fontSize=16;fillColor=#e51400;strokeColor=#000000;fontStyle=1;fontColor=#ffffff;" parent="271" vertex="1">
                    <mxGeometry x="1199" y="1198" width="43" height="44" as="geometry"/>
                </mxCell>
                <mxCell id="398" value="" style="verticalLabelPosition=bottom;verticalAlign=top;html=1;shape=mxgraph.basic.x;fontSize=24;fillColor=#f8cecc;strokeColor=#b85450;" parent="271" vertex="1">
                    <mxGeometry x="1200" y="1360" width="40" height="40" as="geometry"/>
                </mxCell>
                <mxCell id="399" value="" style="verticalLabelPosition=bottom;verticalAlign=top;html=1;shape=mxgraph.basic.x;fontSize=24;fillColor=#f8cecc;strokeColor=#b85450;" parent="271" vertex="1">
                    <mxGeometry x="1360" y="1440" width="40" height="40" as="geometry"/>
                </mxCell>
                <mxCell id="400" value="" style="verticalLabelPosition=bottom;verticalAlign=top;html=1;shape=mxgraph.basic.x;fontSize=24;fillColor=#f8cecc;strokeColor=#b85450;" parent="271" vertex="1">
                    <mxGeometry x="1280" y="1440" width="40" height="40" as="geometry"/>
                </mxCell>
                <mxCell id="401" value="" style="verticalLabelPosition=bottom;verticalAlign=top;html=1;shape=mxgraph.basic.x;fontSize=24;fillColor=#f8cecc;strokeColor=#b85450;" parent="271" vertex="1">
                    <mxGeometry x="1290" y="1510" width="40" height="40" as="geometry"/>
                </mxCell>
                <mxCell id="402" value="" style="group;fontFamily=Times New Roman;fillColor=none;fontStyle=1;fontSize=14;" parent="271" vertex="1" connectable="0">
                    <mxGeometry x="1120" y="1440" width="40" height="40" as="geometry"/>
                </mxCell>
                <mxCell id="403" value="0" style="shape=or;whiteSpace=wrap;html=1;direction=south;fontFamily=Times New Roman;fillColor=none;fontStyle=1;fontSize=14;" parent="402" vertex="1">
                    <mxGeometry y="20" width="40" height="20" as="geometry"/>
                </mxCell>
                <mxCell id="404" value="0" style="shape=or;whiteSpace=wrap;html=1;direction=south;flipV=1;fontFamily=Times New Roman;fillColor=none;fontStyle=1;fontSize=14;" parent="402" vertex="1">
                    <mxGeometry width="40" height="20" as="geometry"/>
                </mxCell>
                <mxCell id="405" value="" style="group;fontFamily=Times New Roman;fillColor=none;fontStyle=1;fontSize=14;" parent="271" vertex="1" connectable="0">
                    <mxGeometry x="1200" y="1440" width="40" height="40" as="geometry"/>
                </mxCell>
                <mxCell id="406" value="1" style="shape=or;whiteSpace=wrap;html=1;direction=south;fontFamily=Times New Roman;fillColor=none;fontStyle=1;fontSize=14;" parent="405" vertex="1">
                    <mxGeometry y="20" width="40" height="20" as="geometry"/>
                </mxCell>
                <mxCell id="407" value="1" style="shape=or;whiteSpace=wrap;html=1;direction=south;flipV=1;fontFamily=Times New Roman;fillColor=none;fontStyle=1;fontSize=14;" parent="405" vertex="1">
                    <mxGeometry width="40" height="20" as="geometry"/>
                </mxCell>
                <mxCell id="408" value="" style="group;fontFamily=Times New Roman;fillColor=none;fontStyle=1;fontSize=14;" parent="271" vertex="1" connectable="0">
                    <mxGeometry x="1280" y="1440" width="41.5" height="42" as="geometry"/>
                </mxCell>
                <mxCell id="409" value="2" style="shape=or;whiteSpace=wrap;html=1;direction=south;fontFamily=Times New Roman;fillColor=none;fontStyle=1;fontSize=14;" parent="408" vertex="1">
                    <mxGeometry y="20" width="40" height="20" as="geometry"/>
                </mxCell>
                <mxCell id="410" value="2" style="shape=or;whiteSpace=wrap;html=1;direction=south;flipV=1;fontFamily=Times New Roman;fillColor=none;fontStyle=1;fontSize=14;" parent="408" vertex="1">
                    <mxGeometry width="40" height="20" as="geometry"/>
                </mxCell>
                <mxCell id="438" value="End" style="verticalLabelPosition=bottom;verticalAlign=top;html=1;shape=mxgraph.basic.donut;dx=4.08;fontSize=16;fillColor=#e51400;strokeColor=#000000;fontStyle=1;fontColor=#ffffff;" parent="408" vertex="1">
                    <mxGeometry x="-1.5" y="-2" width="43" height="44" as="geometry"/>
                </mxCell>
                <mxCell id="411" value="" style="group;fontFamily=Times New Roman;fillColor=none;fontStyle=1;fontSize=14;" parent="271" vertex="1" connectable="0">
                    <mxGeometry x="1360" y="1440" width="40" height="40" as="geometry"/>
                </mxCell>
                <mxCell id="412" value="3" style="shape=or;whiteSpace=wrap;html=1;direction=south;fontFamily=Times New Roman;fillColor=none;fontStyle=1;fontSize=14;" parent="411" vertex="1">
                    <mxGeometry y="20" width="40" height="20" as="geometry"/>
                </mxCell>
                <mxCell id="413" value="3" style="shape=or;whiteSpace=wrap;html=1;direction=south;flipV=1;fontFamily=Times New Roman;fillColor=none;fontStyle=1;fontSize=14;" parent="411" vertex="1">
                    <mxGeometry width="40" height="20" as="geometry"/>
                </mxCell>
                <mxCell id="414" value="" style="group;fontFamily=Times New Roman;fillColor=none;fontStyle=1;fontSize=14;" parent="271" vertex="1" connectable="0">
                    <mxGeometry x="1120" y="1360" width="40" height="40" as="geometry"/>
                </mxCell>
                <mxCell id="415" value="5" style="shape=or;whiteSpace=wrap;html=1;direction=south;fontFamily=Times New Roman;fillColor=none;fontStyle=1;fontSize=14;" parent="414" vertex="1">
                    <mxGeometry y="20" width="40" height="20" as="geometry"/>
                </mxCell>
                <mxCell id="416" value="5" style="shape=or;whiteSpace=wrap;html=1;direction=south;flipV=1;fontFamily=Times New Roman;fillColor=none;fontStyle=1;fontSize=14;" parent="414" vertex="1">
                    <mxGeometry width="40" height="20" as="geometry"/>
                </mxCell>
                <mxCell id="417" value="" style="group;fontFamily=Times New Roman;fillColor=none;fontStyle=1;fontSize=14;" parent="271" vertex="1" connectable="0">
                    <mxGeometry x="1200" y="1360" width="40" height="40" as="geometry"/>
                </mxCell>
                <mxCell id="418" value="6" style="shape=or;whiteSpace=wrap;html=1;direction=south;fontFamily=Times New Roman;fillColor=none;fontStyle=1;fontSize=14;" parent="417" vertex="1">
                    <mxGeometry y="20" width="40" height="20" as="geometry"/>
                </mxCell>
                <mxCell id="419" value="6" style="shape=or;whiteSpace=wrap;html=1;direction=south;flipV=1;fontFamily=Times New Roman;fillColor=none;fontStyle=1;fontSize=14;" parent="417" vertex="1">
                    <mxGeometry width="40" height="20" as="geometry"/>
                </mxCell>
                <mxCell id="420" value="" style="group;fontFamily=Times New Roman;fillColor=none;fontStyle=1;fontSize=14;" parent="271" vertex="1" connectable="0">
                    <mxGeometry x="1280" y="1360" width="40" height="40" as="geometry"/>
                </mxCell>
                <mxCell id="421" value="7" style="shape=or;whiteSpace=wrap;html=1;direction=south;fontFamily=Times New Roman;fillColor=none;fontStyle=1;fontSize=14;" parent="420" vertex="1">
                    <mxGeometry y="20" width="40" height="20" as="geometry"/>
                </mxCell>
                <mxCell id="422" value="7" style="shape=or;whiteSpace=wrap;html=1;direction=south;flipV=1;fontFamily=Times New Roman;fillColor=none;fontStyle=1;fontSize=14;" parent="420" vertex="1">
                    <mxGeometry width="40" height="20" as="geometry"/>
                </mxCell>
                <mxCell id="423" value="" style="group;fontFamily=Times New Roman;fillColor=none;fontStyle=1;fontSize=14;" parent="271" vertex="1" connectable="0">
                    <mxGeometry x="1360" y="1360" width="40" height="40" as="geometry"/>
                </mxCell>
                <mxCell id="424" value="8" style="shape=or;whiteSpace=wrap;html=1;direction=south;fontFamily=Times New Roman;fillColor=none;fontStyle=1;fontSize=14;" parent="423" vertex="1">
                    <mxGeometry y="20" width="40" height="20" as="geometry"/>
                </mxCell>
                <mxCell id="425" value="8" style="shape=or;whiteSpace=wrap;html=1;direction=south;flipV=1;fontFamily=Times New Roman;fillColor=none;fontStyle=1;fontSize=14;" parent="423" vertex="1">
                    <mxGeometry width="40" height="20" as="geometry"/>
                </mxCell>
                <mxCell id="426" value="" style="group;fontFamily=Times New Roman;fillColor=none;fontStyle=1;fontSize=14;" parent="271" vertex="1" connectable="0">
                    <mxGeometry x="1120" y="1280" width="40" height="40" as="geometry"/>
                </mxCell>
                <mxCell id="427" value="10" style="shape=or;whiteSpace=wrap;html=1;direction=south;fontFamily=Times New Roman;fillColor=none;fontStyle=1;fontSize=14;" parent="426" vertex="1">
                    <mxGeometry y="20" width="40" height="20" as="geometry"/>
                </mxCell>
                <mxCell id="428" value="10" style="shape=or;whiteSpace=wrap;html=1;direction=south;flipV=1;fontFamily=Times New Roman;fillColor=none;fontStyle=1;fontSize=14;" parent="426" vertex="1">
                    <mxGeometry width="40" height="20" as="geometry"/>
                </mxCell>
                <mxCell id="429" value="" style="group;fontFamily=Times New Roman;fillColor=none;fontStyle=1;fontSize=14;" parent="271" vertex="1" connectable="0">
                    <mxGeometry x="1200" y="1280" width="40" height="40" as="geometry"/>
                </mxCell>
                <mxCell id="430" value="11" style="shape=or;whiteSpace=wrap;html=1;direction=south;fontFamily=Times New Roman;fillColor=none;fontStyle=1;fontSize=14;" parent="429" vertex="1">
                    <mxGeometry y="20" width="40" height="20" as="geometry"/>
                </mxCell>
                <mxCell id="431" value="11" style="shape=or;whiteSpace=wrap;html=1;direction=south;flipV=1;fontFamily=Times New Roman;fillColor=none;fontStyle=1;fontSize=14;" parent="429" vertex="1">
                    <mxGeometry width="40" height="20" as="geometry"/>
                </mxCell>
                <mxCell id="432" value="" style="group;fontFamily=Times New Roman;fillColor=none;fontStyle=1;fontSize=14;" parent="271" vertex="1" connectable="0">
                    <mxGeometry x="1280" y="1280" width="40" height="40" as="geometry"/>
                </mxCell>
                <mxCell id="433" value="12" style="shape=or;whiteSpace=wrap;html=1;direction=south;fontFamily=Times New Roman;fillColor=none;fontStyle=1;fontSize=14;" parent="432" vertex="1">
                    <mxGeometry y="20" width="40" height="20" as="geometry"/>
                </mxCell>
                <mxCell id="434" value="12" style="shape=or;whiteSpace=wrap;html=1;direction=south;flipV=1;fontFamily=Times New Roman;fillColor=none;fontStyle=1;fontSize=14;" parent="432" vertex="1">
                    <mxGeometry width="40" height="20" as="geometry"/>
                </mxCell>
                <mxCell id="435" value="" style="group;fontFamily=Times New Roman;fillColor=none;fontStyle=1;fontSize=14;" parent="271" vertex="1" connectable="0">
                    <mxGeometry x="1360" y="1280" width="40" height="40" as="geometry"/>
                </mxCell>
                <mxCell id="436" value="13" style="shape=or;whiteSpace=wrap;html=1;direction=south;fontFamily=Times New Roman;fillColor=none;fontStyle=1;fontSize=14;" parent="435" vertex="1">
                    <mxGeometry y="20" width="40" height="20" as="geometry"/>
                </mxCell>
                <mxCell id="437" value="13" style="shape=or;whiteSpace=wrap;html=1;direction=south;flipV=1;fontFamily=Times New Roman;fillColor=none;fontStyle=1;fontSize=14;" parent="435" vertex="1">
                    <mxGeometry width="40" height="20" as="geometry"/>
                </mxCell>
                <mxCell id="439" value="" style="verticalLabelPosition=bottom;verticalAlign=top;html=1;shape=mxgraph.basic.x;fontSize=24;fillColor=#f8cecc;strokeColor=#b85450;" parent="271" vertex="1">
                    <mxGeometry x="1520" y="1120" width="40" height="40" as="geometry"/>
                </mxCell>
                <mxCell id="440" value="" style="verticalLabelPosition=bottom;verticalAlign=top;html=1;shape=mxgraph.basic.x;fontSize=24;fillColor=#f8cecc;strokeColor=#b85450;" parent="271" vertex="1">
                    <mxGeometry x="1680" y="1200" width="40" height="40" as="geometry"/>
                </mxCell>
                <mxCell id="441" value="" style="verticalLabelPosition=bottom;verticalAlign=top;html=1;shape=mxgraph.basic.x;fontSize=24;fillColor=#f8cecc;strokeColor=#b85450;" parent="271" vertex="1">
                    <mxGeometry x="1600" y="1200" width="40" height="40" as="geometry"/>
                </mxCell>
                <mxCell id="442" value="" style="verticalLabelPosition=bottom;verticalAlign=top;html=1;shape=mxgraph.basic.x;fontSize=24;fillColor=#f8cecc;strokeColor=#b85450;" parent="271" vertex="1">
                    <mxGeometry x="1520" y="1200" width="40" height="40" as="geometry"/>
                </mxCell>
                <mxCell id="443" value="" style="group;fontFamily=Times New Roman;fillColor=none;fontStyle=1;fontSize=14;" parent="271" vertex="1" connectable="0">
                    <mxGeometry x="1440" y="1200" width="40" height="40" as="geometry"/>
                </mxCell>
                <mxCell id="444" value="0" style="shape=or;whiteSpace=wrap;html=1;direction=south;fontFamily=Times New Roman;fillColor=none;fontStyle=1;fontSize=14;" parent="443" vertex="1">
                    <mxGeometry y="20" width="40" height="20" as="geometry"/>
                </mxCell>
                <mxCell id="445" value="0" style="shape=or;whiteSpace=wrap;html=1;direction=south;flipV=1;fontFamily=Times New Roman;fillColor=none;fontStyle=1;fontSize=14;" parent="443" vertex="1">
                    <mxGeometry width="40" height="20" as="geometry"/>
                </mxCell>
                <mxCell id="446" value="" style="group;fontFamily=Times New Roman;fillColor=none;fontStyle=1;fontSize=14;" parent="271" vertex="1" connectable="0">
                    <mxGeometry x="1520" y="1200" width="40" height="40" as="geometry"/>
                </mxCell>
                <mxCell id="447" value="11" style="shape=or;whiteSpace=wrap;html=1;direction=south;fontFamily=Times New Roman;fillColor=none;fontStyle=1;fontSize=14;" parent="446" vertex="1">
                    <mxGeometry y="20" width="40" height="20" as="geometry"/>
                </mxCell>
                <mxCell id="448" value="11" style="shape=or;whiteSpace=wrap;html=1;direction=south;flipV=1;fontFamily=Times New Roman;fillColor=none;fontStyle=1;fontSize=14;" parent="446" vertex="1">
                    <mxGeometry width="40" height="20" as="geometry"/>
                </mxCell>
                <mxCell id="449" value="" style="group;fontFamily=Times New Roman;fillColor=none;fontStyle=1;fontSize=14;" parent="271" vertex="1" connectable="0">
                    <mxGeometry x="1600" y="1200" width="40" height="40" as="geometry"/>
                </mxCell>
                <mxCell id="450" value="2" style="shape=or;whiteSpace=wrap;html=1;direction=south;fontFamily=Times New Roman;fillColor=none;fontStyle=1;fontSize=14;" parent="449" vertex="1">
                    <mxGeometry y="20" width="40" height="20" as="geometry"/>
                </mxCell>
                <mxCell id="451" value="2" style="shape=or;whiteSpace=wrap;html=1;direction=south;flipV=1;fontFamily=Times New Roman;fillColor=none;fontStyle=1;fontSize=14;" parent="449" vertex="1">
                    <mxGeometry width="40" height="20" as="geometry"/>
                </mxCell>
                <mxCell id="452" value="" style="group;fontFamily=Times New Roman;fillColor=none;fontStyle=1;fontSize=14;" parent="271" vertex="1" connectable="0">
                    <mxGeometry x="1680" y="1200" width="40" height="40" as="geometry"/>
                </mxCell>
                <mxCell id="453" value="3" style="shape=or;whiteSpace=wrap;html=1;direction=south;fontFamily=Times New Roman;fillColor=none;fontStyle=1;fontSize=14;" parent="452" vertex="1">
                    <mxGeometry y="20" width="40" height="20" as="geometry"/>
                </mxCell>
                <mxCell id="454" value="3" style="shape=or;whiteSpace=wrap;html=1;direction=south;flipV=1;fontFamily=Times New Roman;fillColor=none;fontStyle=1;fontSize=14;" parent="452" vertex="1">
                    <mxGeometry width="40" height="20" as="geometry"/>
                </mxCell>
                <mxCell id="455" value="" style="group;fontFamily=Times New Roman;fillColor=none;fontStyle=1;fontSize=14;" parent="271" vertex="1" connectable="0">
                    <mxGeometry x="1440" y="1120" width="40" height="40" as="geometry"/>
                </mxCell>
                <mxCell id="456" value="5" style="shape=or;whiteSpace=wrap;html=1;direction=south;fontFamily=Times New Roman;fillColor=none;fontStyle=1;fontSize=14;" parent="455" vertex="1">
                    <mxGeometry y="20" width="40" height="20" as="geometry"/>
                </mxCell>
                <mxCell id="457" value="5" style="shape=or;whiteSpace=wrap;html=1;direction=south;flipV=1;fontFamily=Times New Roman;fillColor=none;fontStyle=1;fontSize=14;" parent="455" vertex="1">
                    <mxGeometry width="40" height="20" as="geometry"/>
                </mxCell>
                <mxCell id="458" value="" style="group;fontFamily=Times New Roman;fillColor=none;fontStyle=1;fontSize=14;" parent="271" vertex="1" connectable="0">
                    <mxGeometry x="1520" y="1120" width="40" height="40" as="geometry"/>
                </mxCell>
                <mxCell id="459" value="6" style="shape=or;whiteSpace=wrap;html=1;direction=south;fontFamily=Times New Roman;fillColor=none;fontStyle=1;fontSize=14;" parent="458" vertex="1">
                    <mxGeometry y="20" width="40" height="20" as="geometry"/>
                </mxCell>
                <mxCell id="460" value="6" style="shape=or;whiteSpace=wrap;html=1;direction=south;flipV=1;fontFamily=Times New Roman;fillColor=none;fontStyle=1;fontSize=14;" parent="458" vertex="1">
                    <mxGeometry width="40" height="20" as="geometry"/>
                </mxCell>
                <mxCell id="461" value="" style="group;fontFamily=Times New Roman;fillColor=none;fontStyle=1;fontSize=14;" parent="271" vertex="1" connectable="0">
                    <mxGeometry x="1600" y="1120" width="40" height="40" as="geometry"/>
                </mxCell>
                <mxCell id="462" value="7" style="shape=or;whiteSpace=wrap;html=1;direction=south;fontFamily=Times New Roman;fillColor=none;fontStyle=1;fontSize=14;" parent="461" vertex="1">
                    <mxGeometry y="20" width="40" height="20" as="geometry"/>
                </mxCell>
                <mxCell id="463" value="7" style="shape=or;whiteSpace=wrap;html=1;direction=south;flipV=1;fontFamily=Times New Roman;fillColor=none;fontStyle=1;fontSize=14;" parent="461" vertex="1">
                    <mxGeometry width="40" height="20" as="geometry"/>
                </mxCell>
                <mxCell id="464" value="" style="group;fontFamily=Times New Roman;fillColor=none;fontStyle=1;fontSize=14;" parent="271" vertex="1" connectable="0">
                    <mxGeometry x="1680" y="1120" width="40" height="40" as="geometry"/>
                </mxCell>
                <mxCell id="465" value="8" style="shape=or;whiteSpace=wrap;html=1;direction=south;fontFamily=Times New Roman;fillColor=none;fontStyle=1;fontSize=14;" parent="464" vertex="1">
                    <mxGeometry y="20" width="40" height="20" as="geometry"/>
                </mxCell>
                <mxCell id="466" value="8" style="shape=or;whiteSpace=wrap;html=1;direction=south;flipV=1;fontFamily=Times New Roman;fillColor=none;fontStyle=1;fontSize=14;" parent="464" vertex="1">
                    <mxGeometry width="40" height="20" as="geometry"/>
                </mxCell>
                <mxCell id="467" value="" style="group;fontFamily=Times New Roman;fillColor=none;fontStyle=1;fontSize=14;" parent="271" vertex="1" connectable="0">
                    <mxGeometry x="1440" y="1040" width="40" height="40" as="geometry"/>
                </mxCell>
                <mxCell id="468" value="10" style="shape=or;whiteSpace=wrap;html=1;direction=south;fontFamily=Times New Roman;fillColor=none;fontStyle=1;fontSize=14;" parent="467" vertex="1">
                    <mxGeometry y="20" width="40" height="20" as="geometry"/>
                </mxCell>
                <mxCell id="469" value="10" style="shape=or;whiteSpace=wrap;html=1;direction=south;flipV=1;fontFamily=Times New Roman;fillColor=none;fontStyle=1;fontSize=14;" parent="467" vertex="1">
                    <mxGeometry width="40" height="20" as="geometry"/>
                </mxCell>
                <mxCell id="470" value="" style="group;fontFamily=Times New Roman;fillColor=none;fontStyle=1;fontSize=14;" parent="271" vertex="1" connectable="0">
                    <mxGeometry x="1520" y="1040" width="40" height="40" as="geometry"/>
                </mxCell>
                <mxCell id="471" value="1" style="shape=or;whiteSpace=wrap;html=1;direction=south;fontFamily=Times New Roman;fillColor=none;fontStyle=1;fontSize=14;" parent="470" vertex="1">
                    <mxGeometry y="20" width="40" height="20" as="geometry"/>
                </mxCell>
                <mxCell id="472" value="1" style="shape=or;whiteSpace=wrap;html=1;direction=south;flipV=1;fontFamily=Times New Roman;fillColor=none;fontStyle=1;fontSize=14;" parent="470" vertex="1">
                    <mxGeometry width="40" height="20" as="geometry"/>
                </mxCell>
                <mxCell id="473" value="" style="group;fontFamily=Times New Roman;fillColor=none;fontStyle=1;fontSize=14;" parent="271" vertex="1" connectable="0">
                    <mxGeometry x="1600" y="1040" width="40" height="40" as="geometry"/>
                </mxCell>
                <mxCell id="474" value="12" style="shape=or;whiteSpace=wrap;html=1;direction=south;fontFamily=Times New Roman;fillColor=none;fontStyle=1;fontSize=14;" parent="473" vertex="1">
                    <mxGeometry y="20" width="40" height="20" as="geometry"/>
                </mxCell>
                <mxCell id="475" value="12" style="shape=or;whiteSpace=wrap;html=1;direction=south;flipV=1;fontFamily=Times New Roman;fillColor=none;fontStyle=1;fontSize=14;" parent="473" vertex="1">
                    <mxGeometry width="40" height="20" as="geometry"/>
                </mxCell>
                <mxCell id="476" value="" style="group;fontFamily=Times New Roman;fillColor=none;fontStyle=1;fontSize=14;" parent="271" vertex="1" connectable="0">
                    <mxGeometry x="1680" y="1040" width="40" height="40" as="geometry"/>
                </mxCell>
                <mxCell id="477" value="13" style="shape=or;whiteSpace=wrap;html=1;direction=south;fontFamily=Times New Roman;fillColor=none;fontStyle=1;fontSize=14;" parent="476" vertex="1">
                    <mxGeometry y="20" width="40" height="20" as="geometry"/>
                </mxCell>
                <mxCell id="478" value="13" style="shape=or;whiteSpace=wrap;html=1;direction=south;flipV=1;fontFamily=Times New Roman;fillColor=none;fontStyle=1;fontSize=14;" parent="476" vertex="1">
                    <mxGeometry width="40" height="20" as="geometry"/>
                </mxCell>
                <mxCell id="479" value="End" style="verticalLabelPosition=bottom;verticalAlign=top;html=1;shape=mxgraph.basic.donut;dx=4.08;fontSize=16;fillColor=#e51400;strokeColor=#000000;fontStyle=1;fontColor=#ffffff;" parent="271" vertex="1">
                    <mxGeometry x="1519" y="1198" width="43" height="44" as="geometry"/>
                </mxCell>
                <mxCell id="480" value="" style="labelPosition=right;align=left;strokeWidth=1;shape=mxgraph.mockup.markup.curlyBrace;html=1;shadow=0;dashed=0;strokeColor=#000000;direction=north;fontFamily=Times New Roman;fontSize=14;fillColor=none;flipV=1;flipH=1;" parent="271" vertex="1">
                    <mxGeometry x="1410" y="1040" width="20" height="200" as="geometry"/>
                </mxCell>
                <mxCell id="481" value="" style="shape=table;html=1;whiteSpace=wrap;startSize=0;container=1;collapsible=0;childLayout=tableLayout;fontFamily=Times New Roman;fontSize=14;strokeColor=#000000;strokeWidth=0.5;fillColor=none;" parent="271" vertex="1">
                    <mxGeometry x="900" y="1080" width="180" height="120" as="geometry"/>
                </mxCell>
                <mxCell id="482" value="" style="shape=partialRectangle;html=1;whiteSpace=wrap;collapsible=0;dropTarget=0;pointerEvents=0;fillColor=none;top=0;left=0;bottom=0;right=0;points=[[0,0.5],[1,0.5]];portConstraint=eastwest;fontFamily=Times New Roman;fontSize=14;strokeColor=#000000;strokeWidth=0.5;" parent="481" vertex="1">
                    <mxGeometry width="180" height="40" as="geometry"/>
                </mxCell>
                <mxCell id="483" value="" style="shape=partialRectangle;html=1;whiteSpace=wrap;connectable=0;fillColor=none;top=0;left=0;bottom=0;right=0;overflow=hidden;pointerEvents=1;fontFamily=Times New Roman;fontSize=14;strokeColor=#000000;strokeWidth=0.5;" parent="482" vertex="1">
                    <mxGeometry width="60" height="40" as="geometry">
                        <mxRectangle width="60" height="40" as="alternateBounds"/>
                    </mxGeometry>
                </mxCell>
                <mxCell id="484" value="" style="shape=partialRectangle;html=1;whiteSpace=wrap;connectable=0;fillColor=none;top=0;left=0;bottom=0;right=0;overflow=hidden;pointerEvents=1;fontFamily=Times New Roman;fontSize=14;strokeColor=#000000;strokeWidth=0.5;" parent="482" vertex="1">
                    <mxGeometry x="60" width="60" height="40" as="geometry">
                        <mxRectangle width="60" height="40" as="alternateBounds"/>
                    </mxGeometry>
                </mxCell>
                <mxCell id="485" value="" style="shape=partialRectangle;html=1;whiteSpace=wrap;connectable=0;fillColor=none;top=0;left=0;bottom=0;right=0;overflow=hidden;pointerEvents=1;fontFamily=Times New Roman;fontSize=14;strokeColor=#000000;strokeWidth=0.5;" parent="482" vertex="1">
                    <mxGeometry x="120" width="60" height="40" as="geometry">
                        <mxRectangle width="60" height="40" as="alternateBounds"/>
                    </mxGeometry>
                </mxCell>
                <mxCell id="486" value="" style="shape=partialRectangle;html=1;whiteSpace=wrap;collapsible=0;dropTarget=0;pointerEvents=0;fillColor=none;top=0;left=0;bottom=0;right=0;points=[[0,0.5],[1,0.5]];portConstraint=eastwest;fontFamily=Times New Roman;fontSize=14;strokeColor=#000000;strokeWidth=0.5;" parent="481" vertex="1">
                    <mxGeometry y="40" width="180" height="40" as="geometry"/>
                </mxCell>
                <mxCell id="487" value="6" style="shape=partialRectangle;html=1;whiteSpace=wrap;connectable=0;fillColor=none;top=0;left=0;bottom=0;right=0;overflow=hidden;pointerEvents=1;fontFamily=Times New Roman;fontSize=14;strokeColor=#000000;strokeWidth=0.5;" parent="486" vertex="1">
                    <mxGeometry width="60" height="40" as="geometry">
                        <mxRectangle width="60" height="40" as="alternateBounds"/>
                    </mxGeometry>
                </mxCell>
                <mxCell id="488" value="11" style="shape=partialRectangle;html=1;whiteSpace=wrap;connectable=0;fillColor=none;top=0;left=0;bottom=0;right=0;overflow=hidden;pointerEvents=1;fontFamily=Times New Roman;fontSize=14;strokeColor=#000000;strokeWidth=0.5;" parent="486" vertex="1">
                    <mxGeometry x="60" width="60" height="40" as="geometry">
                        <mxRectangle width="60" height="40" as="alternateBounds"/>
                    </mxGeometry>
                </mxCell>
                <mxCell id="489" value="" style="shape=partialRectangle;html=1;whiteSpace=wrap;connectable=0;fillColor=none;top=0;left=0;bottom=0;right=0;overflow=hidden;pointerEvents=1;fontFamily=Times New Roman;fontSize=14;strokeColor=#000000;strokeWidth=0.5;" parent="486" vertex="1">
                    <mxGeometry x="120" width="60" height="40" as="geometry">
                        <mxRectangle width="60" height="40" as="alternateBounds"/>
                    </mxGeometry>
                </mxCell>
                <mxCell id="490" value="" style="shape=partialRectangle;html=1;whiteSpace=wrap;collapsible=0;dropTarget=0;pointerEvents=0;fillColor=none;top=0;left=0;bottom=0;right=0;points=[[0,0.5],[1,0.5]];portConstraint=eastwest;fontFamily=Times New Roman;fontSize=14;strokeColor=#000000;strokeWidth=0.5;" parent="481" vertex="1">
                    <mxGeometry y="80" width="180" height="40" as="geometry"/>
                </mxCell>
                <mxCell id="491" value="&lt;strike&gt;1&lt;/strike&gt;" style="shape=partialRectangle;html=1;whiteSpace=wrap;connectable=0;fillColor=none;top=0;left=0;bottom=0;right=0;overflow=hidden;pointerEvents=1;fontFamily=Times New Roman;fontSize=14;strokeColor=#000000;strokeWidth=0.5;" parent="490" vertex="1">
                    <mxGeometry width="60" height="40" as="geometry">
                        <mxRectangle width="60" height="40" as="alternateBounds"/>
                    </mxGeometry>
                </mxCell>
                <mxCell id="492" value="2" style="shape=partialRectangle;html=1;whiteSpace=wrap;connectable=0;fillColor=none;top=0;left=0;bottom=0;right=0;overflow=hidden;pointerEvents=1;fontFamily=Times New Roman;fontSize=14;strokeColor=#000000;strokeWidth=0.5;" parent="490" vertex="1">
                    <mxGeometry x="60" width="60" height="40" as="geometry">
                        <mxRectangle width="60" height="40" as="alternateBounds"/>
                    </mxGeometry>
                </mxCell>
                <mxCell id="493" value="3" style="shape=partialRectangle;html=1;whiteSpace=wrap;connectable=0;fillColor=none;top=0;left=0;bottom=0;right=0;overflow=hidden;pointerEvents=1;fontFamily=Times New Roman;fontSize=14;strokeColor=#000000;strokeWidth=0.5;" parent="490" vertex="1">
                    <mxGeometry x="120" width="60" height="40" as="geometry">
                        <mxRectangle width="60" height="40" as="alternateBounds"/>
                    </mxGeometry>
                </mxCell>
                <mxCell id="494" value="" style="shape=table;html=1;whiteSpace=wrap;startSize=0;container=1;collapsible=0;childLayout=tableLayout;fontFamily=Times New Roman;fontSize=14;strokeColor=#000000;strokeWidth=0.5;fillColor=none;" parent="271" vertex="1">
                    <mxGeometry x="900" y="1320" width="180" height="120" as="geometry"/>
                </mxCell>
                <mxCell id="495" value="" style="shape=partialRectangle;html=1;whiteSpace=wrap;collapsible=0;dropTarget=0;pointerEvents=0;fillColor=none;top=0;left=0;bottom=0;right=0;points=[[0,0.5],[1,0.5]];portConstraint=eastwest;fontFamily=Times New Roman;fontSize=14;strokeColor=#000000;strokeWidth=0.5;" parent="494" vertex="1">
                    <mxGeometry width="180" height="40" as="geometry"/>
                </mxCell>
                <mxCell id="496" value="" style="shape=partialRectangle;html=1;whiteSpace=wrap;connectable=0;fillColor=none;top=0;left=0;bottom=0;right=0;overflow=hidden;pointerEvents=1;fontFamily=Times New Roman;fontSize=14;strokeColor=#000000;strokeWidth=0.5;" parent="495" vertex="1">
                    <mxGeometry width="60" height="40" as="geometry">
                        <mxRectangle width="60" height="40" as="alternateBounds"/>
                    </mxGeometry>
                </mxCell>
                <mxCell id="497" value="" style="shape=partialRectangle;html=1;whiteSpace=wrap;connectable=0;fillColor=none;top=0;left=0;bottom=0;right=0;overflow=hidden;pointerEvents=1;fontFamily=Times New Roman;fontSize=14;strokeColor=#000000;strokeWidth=0.5;" parent="495" vertex="1">
                    <mxGeometry x="60" width="60" height="40" as="geometry">
                        <mxRectangle width="60" height="40" as="alternateBounds"/>
                    </mxGeometry>
                </mxCell>
                <mxCell id="498" value="" style="shape=partialRectangle;html=1;whiteSpace=wrap;connectable=0;fillColor=none;top=0;left=0;bottom=0;right=0;overflow=hidden;pointerEvents=1;fontFamily=Times New Roman;fontSize=14;strokeColor=#000000;strokeWidth=0.5;" parent="495" vertex="1">
                    <mxGeometry x="120" width="60" height="40" as="geometry">
                        <mxRectangle width="60" height="40" as="alternateBounds"/>
                    </mxGeometry>
                </mxCell>
                <mxCell id="499" value="" style="shape=partialRectangle;html=1;whiteSpace=wrap;collapsible=0;dropTarget=0;pointerEvents=0;fillColor=none;top=0;left=0;bottom=0;right=0;points=[[0,0.5],[1,0.5]];portConstraint=eastwest;fontFamily=Times New Roman;fontSize=14;strokeColor=#000000;strokeWidth=0.5;" parent="494" vertex="1">
                    <mxGeometry y="40" width="180" height="40" as="geometry"/>
                </mxCell>
                <mxCell id="500" value="11" style="shape=partialRectangle;html=1;whiteSpace=wrap;connectable=0;fillColor=none;top=0;left=0;bottom=0;right=0;overflow=hidden;pointerEvents=1;fontFamily=Times New Roman;fontSize=14;strokeColor=#000000;strokeWidth=0.5;" parent="499" vertex="1">
                    <mxGeometry width="60" height="40" as="geometry">
                        <mxRectangle width="60" height="40" as="alternateBounds"/>
                    </mxGeometry>
                </mxCell>
                <mxCell id="501" value="11" style="shape=partialRectangle;html=1;whiteSpace=wrap;connectable=0;fillColor=none;top=0;left=0;bottom=0;right=0;overflow=hidden;pointerEvents=1;fontFamily=Times New Roman;fontSize=14;strokeColor=#000000;strokeWidth=0.5;" parent="499" vertex="1">
                    <mxGeometry x="60" width="60" height="40" as="geometry">
                        <mxRectangle width="60" height="40" as="alternateBounds"/>
                    </mxGeometry>
                </mxCell>
                <mxCell id="502" value="" style="shape=partialRectangle;html=1;whiteSpace=wrap;connectable=0;fillColor=none;top=0;left=0;bottom=0;right=0;overflow=hidden;pointerEvents=1;fontFamily=Times New Roman;fontSize=14;strokeColor=#000000;strokeWidth=0.5;" parent="499" vertex="1">
                    <mxGeometry x="120" width="60" height="40" as="geometry">
                        <mxRectangle width="60" height="40" as="alternateBounds"/>
                    </mxGeometry>
                </mxCell>
                <mxCell id="503" value="" style="shape=partialRectangle;html=1;whiteSpace=wrap;collapsible=0;dropTarget=0;pointerEvents=0;fillColor=none;top=0;left=0;bottom=0;right=0;points=[[0,0.5],[1,0.5]];portConstraint=eastwest;fontFamily=Times New Roman;fontSize=14;strokeColor=#000000;strokeWidth=0.5;" parent="494" vertex="1">
                    <mxGeometry y="80" width="180" height="40" as="geometry"/>
                </mxCell>
                <mxCell id="504" value="&lt;strike&gt;2&lt;/strike&gt;" style="shape=partialRectangle;html=1;whiteSpace=wrap;connectable=0;fillColor=none;top=0;left=0;bottom=0;right=0;overflow=hidden;pointerEvents=1;fontFamily=Times New Roman;fontSize=14;strokeColor=#000000;strokeWidth=0.5;" parent="503" vertex="1">
                    <mxGeometry width="60" height="40" as="geometry">
                        <mxRectangle width="60" height="40" as="alternateBounds"/>
                    </mxGeometry>
                </mxCell>
                <mxCell id="505" value="3" style="shape=partialRectangle;html=1;whiteSpace=wrap;connectable=0;fillColor=none;top=0;left=0;bottom=0;right=0;overflow=hidden;pointerEvents=1;fontFamily=Times New Roman;fontSize=14;strokeColor=#000000;strokeWidth=0.5;" parent="503" vertex="1">
                    <mxGeometry x="60" width="60" height="40" as="geometry">
                        <mxRectangle width="60" height="40" as="alternateBounds"/>
                    </mxGeometry>
                </mxCell>
                <mxCell id="506" value="6" style="shape=partialRectangle;html=1;whiteSpace=wrap;connectable=0;fillColor=none;top=0;left=0;bottom=0;right=0;overflow=hidden;pointerEvents=1;fontFamily=Times New Roman;fontSize=14;strokeColor=#000000;strokeWidth=0.5;" parent="503" vertex="1">
                    <mxGeometry x="120" width="60" height="40" as="geometry">
                        <mxRectangle width="60" height="40" as="alternateBounds"/>
                    </mxGeometry>
                </mxCell>
            </root>
        </mxGraphModel>
    </diagram>
</mxfile>